<?xml version='1.0' encoding='UTF-8' standalone='no'?>
<!-- Created with Fritzing (http://www.fritzing.org/) -->
<svg xmlns:svg='http://www.w3.org/2000/svg' xmlns='http://www.w3.org/2000/svg' version='1.2' baseProfile='tiny' x='0in' y='0in' width='2.13445in' height='1.74901in' viewBox='0 0 153.68 125.929' >
<g partID='58470'><g transform='translate(12.7771,32.3287)' ><g  id="breadboardbreadboard">
 <g  id="icon">
  <path  d="M0,0l0,93.6l50.4,0L50.4,0L0,0M41.76,3.6c0,-0.795,0.646,-1.438,1.44,-1.438s1.44,0.645,1.44,1.438s-0.646,1.44,-1.44,1.44S41.76,4.395,41.76,3.6zM34.56,3.6c0,-0.795,0.645,-1.438,1.438,-1.438c0.796,0,1.44,0.645,1.44,1.438S36.796,5.04,36,5.04C35.205,5.04,34.56,4.395,34.56,3.6zM27.36,3.6c0,-0.795,0.645,-1.438,1.438,-1.438c0.797,0,1.44,0.645,1.44,1.438s-0.645,1.44,-1.44,1.44C28.005,5.04,27.36,4.395,27.36,3.6zM20.16,3.6c0,-0.795,0.646,-1.438,1.44,-1.438s1.438,0.645,1.438,1.438S22.395,5.04,21.6,5.04C20.804,5.04,20.16,4.395,20.16,3.6zM12.96,3.6c0,-0.795,0.646,-1.438,1.44,-1.438s1.438,0.645,1.438,1.438S15.195,5.04,14.4,5.04C13.604,5.04,12.96,4.395,12.96,3.6zM5.76,3.6c0,-0.795,0.646,-1.438,1.44,-1.438S8.64,2.805,8.64,3.6S7.995,5.04,7.2,5.04S5.76,4.395,5.76,3.6zM37.08,42.84c0,-0.796,0.646,-1.44,1.44,-1.44s1.438,0.646,1.438,1.44s-0.645,1.438,-1.438,1.438C37.724,44.28,37.08,43.635,37.08,42.84zM37.08,35.64c0,-0.795,0.646,-1.438,1.44,-1.438s1.438,0.645,1.438,1.438s-0.645,1.44,-1.438,1.44C37.724,37.08,37.08,36.435,37.08,35.64zM45.36,10.8c0,-0.795,0.645,-1.44,1.438,-1.44c0.797,0,1.44,0.646,1.44,1.44s-0.646,1.438,-1.44,1.438C46.005,12.24,45.36,11.595,45.36,10.8zM45.36,18c0,-0.796,0.645,-1.44,1.438,-1.44c0.797,0,1.44,0.646,1.44,1.44s-0.646,1.438,-1.44,1.438C46.005,19.44,45.36,18.795,45.36,18zM45.36,25.2c0,-0.797,0.645,-1.44,1.438,-1.44c0.797,0,1.44,0.645,1.44,1.44c0,0.795,-0.646,1.438,-1.44,1.438C46.005,26.64,45.36,25.995,45.36,25.2zM45.36,32.4c0,-0.795,0.645,-1.438,1.438,-1.438c0.797,0,1.44,0.645,1.44,1.438c0,0.796,-0.646,1.44,-1.44,1.44C46.005,33.84,45.36,33.196,45.36,32.4zM45.36,39.6c0,-0.795,0.645,-1.438,1.438,-1.438c0.797,0,1.44,0.645,1.44,1.438s-0.646,1.44,-1.44,1.44C46.005,41.04,45.36,40.395,45.36,39.6zM45.36,46.8c0,-0.795,0.645,-1.44,1.438,-1.44c0.797,0,1.44,0.646,1.44,1.44s-0.646,1.438,-1.44,1.438C46.005,48.24,45.36,47.595,45.36,46.8zM45.36,54c0,-0.796,0.645,-1.44,1.438,-1.44c0.797,0,1.44,0.646,1.44,1.44s-0.646,1.438,-1.44,1.438C46.005,55.44,45.36,54.795,45.36,54zM45.36,61.2c0,-0.797,0.645,-1.44,1.438,-1.44c0.797,0,1.44,0.645,1.44,1.44l0,0c0,0.795,-0.646,1.438,-1.44,1.438C46.005,62.64,45.36,61.995,45.36,61.2zM45.36,68.4c0,-0.795,0.645,-1.438,1.438,-1.438c0.797,0,1.44,0.645,1.44,1.438l0,0c0,0.796,-0.646,1.44,-1.44,1.44C46.005,69.84,45.36,69.196,45.36,68.4zM45.36,75.6c0,-0.795,0.645,-1.438,1.438,-1.438c0.797,0,1.44,0.645,1.44,1.438s-0.646,1.44,-1.44,1.44C46.005,77.04,45.36,76.395,45.36,75.6zM45.36,82.8c0,-0.795,0.645,-1.44,1.438,-1.44c0.797,0,1.44,0.646,1.44,1.44s-0.646,1.438,-1.44,1.438C46.005,84.24,45.36,83.595,45.36,82.8zM45.36,90c0,-0.796,0.645,-1.44,1.438,-1.44c0.797,0,1.44,0.646,1.44,1.44s-0.646,1.438,-1.44,1.438C46.005,91.44,45.36,90.795,45.36,90zM2.16,90c0,-0.796,0.646,-1.44,1.439,-1.44c0.796,-0.001,1.439,0.645,1.439,1.439c0,0,0,0,0,0.001c0,0.795,-0.645,1.438,-1.438,1.438C2.804,91.44,2.16,90.795,2.16,90zM2.16,82.8c0,-0.795,0.646,-1.44,1.439,-1.44c0.796,0,1.439,0.646,1.439,1.439L5.038,82.8c0,0.795,-0.645,1.438,-1.438,1.438C2.804,84.24,2.16,83.595,2.16,82.8zM2.16,75.6c0,-0.795,0.646,-1.439,1.439,-1.439c0.796,0,1.439,0.645,1.439,1.438L5.038,75.6c0,0.795,-0.645,1.44,-1.438,1.44C2.804,77.04,2.16,76.395,2.16,75.6zM2.16,68.4c0,-0.795,0.646,-1.438,1.439,-1.439c0.796,0,1.439,0.645,1.439,1.438c0,0.001,0,0.001,0,0.001c0,0.796,-0.645,1.44,-1.438,1.44C2.804,69.84,2.16,69.196,2.16,68.4zM2.16,61.2c0,-0.797,0.646,-1.44,1.439,-1.441c0.796,0,1.439,0.645,1.439,1.439c0,0,0,0,0,0.002c0,0.795,-0.645,1.438,-1.438,1.438C2.804,62.64,2.16,61.995,2.16,61.2zM2.16,54c0,-0.796,0.646,-1.44,1.439,-1.44c0.796,-0.001,1.439,0.645,1.439,1.439c0,0,0,0,0,0.001c0,0.795,-0.645,1.438,-1.438,1.438C2.804,55.44,2.16,54.795,2.16,54zM2.16,46.8c0,-0.795,0.646,-1.44,1.439,-1.44c0.796,0,1.439,0.646,1.439,1.439L5.038,46.8c0,0.795,-0.645,1.438,-1.438,1.438C2.804,48.24,2.16,47.595,2.16,46.8zM2.16,39.6c0,-0.795,0.646,-1.439,1.439,-1.439c0.796,0,1.439,0.645,1.439,1.438L5.038,39.6c0,0.795,-0.645,1.44,-1.438,1.44C2.804,41.04,2.16,40.395,2.16,39.6zM2.16,32.4c0,-0.795,0.646,-1.438,1.439,-1.439c0.796,0,1.439,0.645,1.439,1.438c0,0.001,0,0.001,0,0.001c0,0.796,-0.645,1.44,-1.438,1.44C2.804,33.84,2.16,33.196,2.16,32.4zM2.16,25.2c0,-0.797,0.646,-1.44,1.439,-1.441c0.796,0,1.439,0.645,1.439,1.439c0,0,0,0,0,0.002c0,0.795,-0.645,1.438,-1.438,1.438C2.804,26.64,2.16,25.995,2.16,25.2L2.16,25.2zM2.16,18c0,-0.796,0.646,-1.44,1.439,-1.44c0.796,-0.001,1.439,0.645,1.439,1.439c0,0,0,0,0,0.001c0,0.795,-0.645,1.438,-1.438,1.438C2.804,19.44,2.16,18.795,2.16,18zM2.16,10.8c0,-0.795,0.646,-1.44,1.439,-1.44c0.796,0,1.439,0.646,1.439,1.439L5.038,10.8c0,0.795,-0.645,1.438,-1.438,1.438C2.804,12.24,2.16,11.595,2.16,10.8z" fill="#0F7391"/>
  <g >
   <circle  stroke-width="0.72" stroke="#FFFFFF" fill="none" cx="3.6" cy="68.4" r="2.88"/>
   <circle  stroke-width="0.72" stroke="#FFFFFF" fill="none" cx="3.6" cy="61.2" r="2.88"/>
   <circle  stroke-width="0.72" stroke="#FFFFFF" fill="none" cx="3.6" cy="46.8" r="2.88"/>
   <circle  stroke-width="0.72" stroke="#FFFFFF" fill="none" cx="3.6" cy="90" r="2.88"/>
   <circle  stroke-width="0.72" stroke="#FFFFFF" fill="none" cx="46.8" cy="90" r="2.88"/>
   <circle  stroke-width="0.72" stroke="#FFFFFF" fill="none" cx="46.8" cy="82.8" r="2.88"/>
   <g >
    <title >text:Arduino Pro</title>
    <g transform="matrix(1, 0, 0, 1, 14.0437, 15.8401)">
     <text  font-family="'OCRA'" fill="#FFFFFF" font-size="3">Arduino Pro</text>
    </g>
   </g>
   <g >
    <title >text:Mini</title>
    <g transform="matrix(1, 0, 0, 1, 20.9749, 12.2395)">
     <text  font-family="'OCRA'" fill="#FFFFFF" font-size="3">Mini</text>
    </g>
   </g>
   <g >
    <title >layer 21</title>
    <g >
     <title >text:Reset</title>
     <g transform="matrix(1, 0, 0, 1, 20.7922, 77.8323)">
      <text  font-family="'OCRA'" fill="#FFFFFF" font-size="2.5">Reset</text>
     </g>
    </g>
    <g >
     <title >text:9</title>
     <g transform="matrix(1, 0, 0, 1, 9.72, 91.08)">
      <g >
       <g transform="rotate(270)">
        <g >
         <g transform="matrix(1, 0, 0, 1, -0.000305176, -0.000518799)">
          <text  font-family="'OCRA'" fill="#FFFFFF" font-size="2.5">9</text>
         </g>
        </g>
       </g>
      </g>
     </g>
    </g>
    <g >
     <title >text:8</title>
     <g transform="matrix(1, 0, 0, 1, 9.72, 83.88)">
      <g >
       <g transform="rotate(270)">
        <g >
         <g transform="matrix(1, 0, 0, 1, 0.000854492, -0.000518799)">
          <text  font-family="'OCRA'" fill="#FFFFFF" font-size="2.5">8</text>
         </g>
        </g>
       </g>
      </g>
     </g>
    </g>
    <g >
     <title >text:7</title>
     <g transform="matrix(1, 0, 0, 1, 9.72, 76.32)">
      <g >
       <g transform="rotate(270)">
        <g >
         <g transform="matrix(1, 0, 0, 1, 0.000427246, -0.000518799)">
          <text  font-family="'OCRA'" fill="#FFFFFF" font-size="2.5">7</text>
         </g>
        </g>
       </g>
      </g>
     </g>
    </g>
    <g >
     <title >text:6</title>
     <g transform="matrix(1, 0, 0, 1, 9.72, 69.48)">
      <g >
       <g transform="rotate(270)">
        <g >
         <g transform="matrix(1, 0, 0, 1, 0.000274658, -0.000518799)">
          <text  font-family="'OCRA'" fill="#FFFFFF" font-size="2.5">6</text>
         </g>
        </g>
       </g>
      </g>
     </g>
    </g>
    <g >
     <title >text:5</title>
     <g transform="matrix(1, 0, 0, 1, 9.72, 62.28)">
      <g >
       <g transform="rotate(270)">
        <g >
         <g transform="matrix(1, 0, 0, 1, 0.000457764, -0.000518799)">
          <text  font-family="'OCRA'" fill="#FFFFFF" font-size="2.5">5</text>
         </g>
        </g>
       </g>
      </g>
     </g>
    </g>
    <g >
     <title >text:4</title>
     <g transform="matrix(1, 0, 0, 1, 9.72, 55.08)">
      <g >
       <g transform="rotate(270)">
        <g >
         <g transform="matrix(1, 0, 0, 1, -0.000305176, -0.000518799)">
          <text  font-family="'OCRA'" fill="#FFFFFF" font-size="2.5">4</text>
         </g>
        </g>
       </g>
      </g>
     </g>
    </g>
    <g >
     <title >text:3</title>
     <g transform="matrix(1, 0, 0, 1, 9.72, 47.88)">
      <g >
       <g transform="rotate(270)">
        <g >
         <g transform="matrix(1, 0, 0, 1, 0.000854492, -0.000518799)">
          <text  font-family="'OCRA'" fill="#FFFFFF" font-size="2.5">3</text>
         </g>
        </g>
       </g>
      </g>
     </g>
    </g>
    <g >
     <title >text:2</title>
     <g transform="matrix(1, 0, 0, 1, 9.36, 40.32)">
      <g >
       <g transform="rotate(270)">
        <g >
         <g transform="matrix(1, 0, 0, 1, 0.000427246, -0.000854492)">
          <text  font-family="'OCRA'" fill="#FFFFFF" font-size="2.5">2</text>
         </g>
        </g>
       </g>
      </g>
     </g>
    </g>
    <g >
     <title >text:GND</title>
     <g transform="matrix(1, 0, 0, 1, 9.36, 35.64)">
      <g >
       <g transform="rotate(270)">
        <g >
         <g transform="matrix(1, 0, 0, 1, 0.00012207, -0.000854492)">
          <text  font-family="'OCRA'" fill="#FFFFFF" font-size="2.5">GND</text>
         </g>
        </g>
       </g>
      </g>
     </g>
    </g>
    <g >
     <title >text:RST</title>
     <g transform="matrix(1, 0, 0, 1, 9.36, 28.08)">
      <g >
       <g transform="rotate(270)">
        <g >
         <g transform="matrix(1, 0, 0, 1, -0.000335693, -0.000854492)">
          <text  font-family="'OCRA'" fill="#FFFFFF" font-size="2.5">RST</text>
         </g>
        </g>
       </g>
      </g>
     </g>
    </g>
    <g >
     <title >text:RXI</title>
     <g transform="matrix(1, 0, 0, 1, 9.36, 20.88)">
      <g >
       <g transform="rotate(270)">
        <g >
         <g transform="matrix(1, 0, 0, 1, 0.000854492, -0.000854492)">
          <text  font-family="'OCRA'" fill="#FFFFFF" font-size="2.5">RXI</text>
         </g>
        </g>
       </g>
      </g>
     </g>
    </g>
    <g >
     <title >text:TXO</title>
     <g transform="matrix(1, 0, 0, 1, 9.36, 13.68)">
      <g >
       <g transform="rotate(270)">
        <g >
         <g transform="matrix(1, 0, 0, 1, 6.10352e-05, -0.000854492)">
          <text  font-family="'OCRA'" fill="#FFFFFF" font-size="2.5">TXO</text>
         </g>
        </g>
       </g>
      </g>
     </g>
    </g>
    <g >
     <title >text:TXO</title>
     <g transform="matrix(1, 0, 0, 1, 33.1199, 8.7483)">
      <text  font-family="'OCRA'" fill="#FFFFFF" font-size="2.5">TXO</text>
     </g>
    </g>
    <g >
     <title >text:RXI</title>
     <g transform="matrix(1, 0, 0, 1, 26.28, 8.7483)">
      <text  font-family="'OCRA'" fill="#FFFFFF" font-size="2.5">RXI</text>
     </g>
    </g>
    <g >
     <title >text:RAW</title>
     <g transform="matrix(1, 0, 0, 1, 43.56, 13.68)">
      <g >
       <g transform="rotate(270)">
        <g >
         <g transform="matrix(1, 0, 0, 1, 6.10352e-05, -0.000671387)">
          <text  font-family="'OCRA'" fill="#FFFFFF" font-size="2.5">RAW</text>
         </g>
        </g>
       </g>
      </g>
     </g>
    </g>
    <g >
     <title >text:GND</title>
     <g transform="matrix(1, 0, 0, 1, 43.56, 20.88)">
      <g >
       <g transform="rotate(270)">
        <g >
         <g transform="matrix(1, 0, 0, 1, 0.000854492, -0.000671387)">
          <text  font-family="'OCRA'" fill="#FFFFFF" font-size="2.5">GND</text>
         </g>
        </g>
       </g>
      </g>
     </g>
    </g>
    <g >
     <title >text:RST</title>
     <g transform="matrix(1, 0, 0, 1, 43.56, 28.08)">
      <g >
       <g transform="rotate(270)">
        <g >
         <g transform="matrix(1, 0, 0, 1, -0.000335693, -0.000671387)">
          <text  font-family="'OCRA'" fill="#FFFFFF" font-size="2.5">RST</text>
         </g>
        </g>
       </g>
      </g>
     </g>
    </g>
    <g >
     <title >text:VCC</title>
     <g transform="matrix(1, 0, 0, 1, 43.56, 35.28)">
      <g >
       <g transform="rotate(270)">
        <g >
         <g transform="matrix(1, 0, 0, 1, 0.000457764, -0.000671387)">
          <text  font-family="'OCRA'" fill="#FFFFFF" font-size="2.5">VCC</text>
         </g>
        </g>
       </g>
      </g>
     </g>
    </g>
    <g >
     <title >text:A3</title>
     <g transform="matrix(1, 0, 0, 1, 43.56, 41.4)">
      <g >
       <g transform="rotate(270)">
        <g >
         <g transform="matrix(1, 0, 0, 1, 0.000335693, -0.000671387)">
          <text  font-family="'OCRA'" fill="#FFFFFF" font-size="2.5">A3</text>
         </g>
        </g>
       </g>
      </g>
     </g>
    </g>
    <g >
     <title >text:A2</title>
     <g transform="matrix(1, 0, 0, 1, 43.56, 48.6)">
      <g >
       <g transform="rotate(270)">
        <g >
         <g transform="matrix(1, 0, 0, 1, 0.000152588, -0.000671387)">
          <text  font-family="'OCRA'" fill="#FFFFFF" font-size="2.5">A2</text>
         </g>
        </g>
       </g>
      </g>
     </g>
    </g>
    <g >
     <title >text:A1</title>
     <g transform="matrix(1, 0, 0, 1, 43.56, 56.16)">
      <g >
       <g transform="rotate(270)">
        <g >
         <g transform="matrix(1, 0, 0, 1, -0.000396729, -0.000671387)">
          <text  font-family="'OCRA'" fill="#FFFFFF" font-size="2.5">A1</text>
         </g>
        </g>
       </g>
      </g>
     </g>
    </g>
    <g >
     <title >text:A0</title>
     <g transform="matrix(1, 0, 0, 1, 43.56, 63.36)">
      <g >
       <g transform="rotate(270)">
        <g >
         <g transform="matrix(1, 0, 0, 1, 0.000366211, -0.000671387)">
          <text  font-family="'OCRA'" fill="#FFFFFF" font-size="2.5">A0</text>
         </g>
        </g>
       </g>
      </g>
     </g>
    </g>
    <g >
     <title >text:13</title>
     <g transform="matrix(1, 0, 0, 1, 43.56, 70.56)">
      <g >
       <g transform="rotate(270)">
        <g >
         <g transform="matrix(1, 0, 0, 1, 0.000183105, -0.000671387)">
          <text  font-family="'OCRA'" fill="#FFFFFF" font-size="2.5">13</text>
         </g>
        </g>
       </g>
      </g>
     </g>
    </g>
    <g >
     <title >text:12</title>
     <g transform="matrix(1, 0, 0, 1, 43.56, 77.76)">
      <g >
       <g transform="rotate(270)">
        <g >
         <g transform="matrix(1, 0, 0, 1, 0, -0.000671387)">
          <text  font-family="'OCRA'" fill="#FFFFFF" font-size="2.5">12</text>
         </g>
        </g>
       </g>
      </g>
     </g>
    </g>
    <g >
     <title >text:11</title>
     <g transform="matrix(1, 0, 0, 1, 43.56, 84.96)">
      <g >
       <g transform="rotate(270)">
        <g >
         <g transform="matrix(1, 0, 0, 1, 0.000762939, -0.000671387)">
          <text  font-family="'OCRA'" fill="#FFFFFF" font-size="2.5">11</text>
         </g>
        </g>
       </g>
      </g>
     </g>
    </g>
    <g >
     <title >text:10</title>
     <g transform="matrix(1, 0, 0, 1, 43.56, 92.16)">
      <g >
       <g transform="rotate(270)">
        <g >
         <g transform="matrix(1, 0, 0, 1, -0.000396729, -0.000671387)">
          <text  font-family="'OCRA'" fill="#FFFFFF" font-size="2.5">10</text>
         </g>
        </g>
       </g>
      </g>
     </g>
    </g>
    <g >
     <title >text:VCC</title>
     <g transform="matrix(1, 0, 0, 1, 18.7195, 8.7483)">
      <text  font-family="'OCRA'" fill="#FFFFFF" font-size="2.5">VCC</text>
     </g>
    </g>
    <g >
     <title >text:GND</title>
     <g transform="matrix(1, 0, 0, 1, 11.5198, 8.7483)">
      <text  font-family="'OCRA'" fill="#FFFFFF" font-size="2.5">GND</text>
     </g>
    </g>
    <g >
     <title >text:BLK</title>
     <g transform="matrix(1, 0, 0, 1, 3.6, 6.48)">
      <g >
       <g transform="rotate(270)">
        <g >
         <g transform="matrix(1, 0, 0, 1, 0.000274658, -0.000640869)">
          <text  font-family="'OCRA'" fill="#FFFFFF" font-size="2.5">BLK</text>
         </g>
        </g>
       </g>
      </g>
     </g>
    </g>
    <g >
     <title >text:GRN</title>
     <g transform="matrix(1, 0, 0, 1, 48.96, 6.48)">
      <g >
       <g transform="rotate(270)">
        <g >
         <g transform="matrix(1, 0, 0, 1, 0.000274658, -0.000305176)">
          <text  font-family="'OCRA'" fill="#FFFFFF" font-size="2.5">GRN</text>
         </g>
        </g>
       </g>
      </g>
     </g>
    </g>
    <g >
     <title >text:Released under the Creative Commons Attribution Share-Alike 3.0 License</title>
    </g>
    <g >
     <title >text:http://creativecommons.org/licenses/by-sa/3.0</title>
    </g>
    <g >
     <title >element:JP1</title>
     <g >
      <title >package:1X06</title>
     </g>
    </g>
    <g >
     <title >element:JP2</title>
     <g >
      <title >package:1X02</title>
     </g>
    </g>
    <g >
     <title >element:JP3</title>
     <g >
      <title >package:1X01</title>
     </g>
    </g>
    <g >
     <title >element:JP4</title>
     <g >
      <title >package:1X01</title>
     </g>
    </g>
    <g >
     <title >element:JP5</title>
     <g >
      <title >package:MICRO-FIDUCIAL</title>
     </g>
    </g>
    <g >
     <title >element:JP6</title>
     <g >
      <title >package:1X12</title>
     </g>
    </g>
    <g >
     <title >element:JP7</title>
     <g >
      <title >package:1X12</title>
     </g>
    </g>
    <g >
     <title >element:JP8</title>
     <g >
      <title >package:MICRO-FIDUCIAL</title>
     </g>
    </g>
    <g >
     <title >element:R1</title>
     <g >
      <title >package:0402-RES</title>
     </g>
    </g>
    <g >
     <title >element:R3</title>
     <g >
      <title >package:0402-RES</title>
     </g>
    </g>
    <g >
     <title >element:U$1</title>
     <g >
      <title >package:SFE-LOGO-FLAME</title>
      <g >
       <title >polygon</title>
       <path  stroke-width="0.072" stroke="#FFFFFF" d="M13.068,68.421L12.931,68.4M12.931,68.4l-0.268,-0.021M12.665,68.379L12.398,68.4M12.398,68.4L12.2,68.452M12.2,68.452l-0.184,0.091M12.016,68.543l-0.161,0.126M11.855,68.669l-0.134,0.154M11.721,68.823l-0.113,0.208M11.608,69.031l-0.068,0.228M11.54,69.259l-0.02,0.235M11.52,69.494l0,4.299M11.52,73.793l1.382,-1.557M12.902,72.238l0.246,-0.226M13.148,72.012l0.287,-0.171M13.435,71.841l0.104,-0.038M13.541,71.803l0.11,-0.019M13.651,71.784L14.3,71.784M14.3,71.784l0.387,-0.035M14.685,71.749l0.374,-0.104M15.059,71.645l0.349,-0.17M15.408,71.475l0.328,-0.231M15.736,71.242l0.293,-0.275M16.029,70.967l0.25,-0.313M16.279,70.654l0.269,-0.477M16.548,70.177l0.179,-0.517M16.725,69.66l0.082,-0.541M16.807,69.119l-0.018,-0.548M16.791,68.573l-0.059,-0.294M16.732,68.279l-0.103,-0.282M16.631,67.995l-0.143,-0.266M16.488,67.731l-0.257,-0.321M16.231,67.408l-0.319,-0.263M15.912,67.147l0,0.252M15.912,67.399l-0.005,0.041M15.907,67.44l-0.017,0.039M15.89,67.479l-0.084,0.104M15.806,67.582l-0.11,0.076M15.696,67.658l-0.058,0.021M15.638,67.68l-0.162,0.018M15.476,67.698l-0.16,-0.028M15.316,67.668l-0.146,-0.075M15.171,67.593l-0.26,-0.188M14.911,67.406l-0.119,-0.104M14.792,67.303l-0.104,-0.12M14.688,67.183l-0.083,-0.135M14.605,67.048l-0.062,-0.146M14.545,66.903l-0.019,-0.093M14.526,66.81l0.004,-0.095M14.53,66.715l0.047,-0.156M14.577,66.559l0.086,-0.139M14.663,66.42l0.119,-0.11M14.782,66.31l0.144,-0.077M14.926,66.233l0.146,-0.041M15.071,66.192l0.149,-0.017M15.22,66.175l0.173,0M15.393,66.175L15.393,66.175M15.393,66.175l-0.007,-0.007M15.386,66.168l-0.123,-0.097M15.263,66.073l-0.145,-0.063M15.12,66.009l-0.101,-0.043M15.019,65.966l-0.064,-0.028M14.955,65.938l-0.249,-0.063M14.706,65.875l-0.255,-0.024M14.451,65.851l-0.247,0.02M14.204,65.869l-0.237,0.065M13.967,65.936l-0.222,0.109M13.745,66.045l-0.221,0.159M13.524,66.204l-0.197,0.187M13.327,66.391l-0.122,0.171M13.205,66.562l-0.075,0.196M13.13,66.758l-0.023,0.209M13.105,66.967l0.026,0.209M13.133,67.176l0.08,0.194M13.213,67.37l0.336,0.498M13.549,67.868l0.412,0.438M13.961,68.307l0.108,0.127M14.069,68.434l0.072,0.151M14.141,68.585l0.03,0.164M14.173,68.749l-0.014,0.167M14.159,68.916l-0.056,0.157M14.103,69.073l-0.096,0.139M14.009,69.212l-0.127,0.108M13.882,69.322l-0.159,0.087M13.721,69.406l-0.173,0.06M13.55,69.466l-0.179,0.028M13.371,69.494l-0.21,-0.012M13.161,69.484l-0.201,-0.061M12.96,69.423l-0.18,-0.108M12.78,69.315l-0.095,-0.101M12.685,69.214l-0.063,-0.123M12.622,69.091l-0.027,-0.126M12.594,68.965l0,-0.13M12.594,68.835l0.027,-0.126M12.622,68.709l0.025,-0.048M12.647,68.661l0.039,-0.038M12.686,68.623l0.237,-0.173M12.925,68.45l0.045,-0.023M12.969,68.427l0.05,-0.011M13.018,68.416l0.05,0.005M11.52,73.728l0.058,0M11.52,73.656l0.122,0M11.52,73.584l0.186,0M11.52,73.512l0.25,0M11.52,73.44l0.313,0M11.52,73.368l0.378,0M11.52,73.296l0.44,0M11.52,73.224l0.506,0M11.52,73.152l0.568,0M11.52,73.08l0.634,0M11.52,73.008l0.696,0M11.52,72.936l0.762,0M11.52,72.864l0.825,0M11.52,72.792l0.89,0M11.52,72.72l0.953,0M11.52,72.648l1.018,0M11.52,72.576l1.081,0M11.52,72.504l1.146,0M11.52,72.432l1.209,0M11.52,72.36l1.272,0M11.52,72.288l1.337,0M11.52,72.216l1.404,0M11.52,72.144l1.483,0M11.52,72.072l1.563,0M11.52,72l1.647,0M11.52,71.928l1.77,0M11.52,71.856l1.891,0M11.52,71.784L14.3,71.784M11.52,71.712l3.298,0M11.52,71.64l3.549,0M11.52,71.568l3.695,0M11.52,71.496l3.844,0M11.52,71.424l3.959,0M11.52,71.352l4.062,0M11.52,71.28l4.163,0M11.52,71.208l4.253,0M11.52,71.136l4.329,0M11.52,71.064l4.405,0M11.52,70.992l4.481,0M11.52,70.92l4.546,0M11.52,70.848l4.604,0M11.52,70.776l4.661,0M11.52,70.704l4.719,0M11.52,70.632l4.771,0M11.52,70.56l4.812,0M11.52,70.488l4.853,0M11.52,70.416l4.893,0M11.52,70.344l4.934,0M11.52,70.272l4.974,0M11.52,70.2l5.015,0M11.52,70.128l5.044,0M11.52,70.056l5.068,0M11.52,69.984l5.094,0M11.52,69.912l5.119,0M11.52,69.84l5.144,0M11.52,69.768l5.168,0M11.52,69.696l5.192,0M11.52,69.624l5.211,0M11.52,69.552l5.222,0M11.521,69.48l1.626,0M13.462,69.48l3.291,0M11.527,69.408l1.408,0M13.721,69.408l3.042,0M11.534,69.336l1.282,0M13.855,69.336l2.92,0M11.54,69.264l1.192,0M13.949,69.264l2.837,0M11.56,69.192l1.112,0M14.023,69.192l2.772,0M11.582,69.12l1.056,0M14.072,69.12l2.735,0M11.603,69.048l1.009,0M14.113,69.048l2.692,0M11.639,68.976l0.957,0M14.138,68.976l2.665,0M11.678,68.904l0.914,0M14.16,68.904l2.641,0M11.717,68.832l0.878,0M14.166,68.832l2.633,0M11.777,68.76l0.833,0M14.172,68.76l2.625,0M11.839,68.688l0.795,0M14.161,68.688l2.633,0M11.923,68.615l0.773,0M14.147,68.615l2.645,0M12.015,68.544l0.779,0M14.122,68.544l2.663,0M12.16,68.472l0.734,0M14.088,68.472l2.684,0M12.398,68.4l0.533,0M14.041,68.4l2.715,0M13.979,68.328l2.763,0M13.914,68.256l2.811,0M13.845,68.184l2.853,0M13.777,68.112l2.896,0M13.71,68.04l2.938,0M13.642,67.968l2.974,0M13.574,67.896l3.003,0M13.518,67.823l3.021,0M13.469,67.752l3.029,0M13.421,67.68l1.961,0M15.638,67.68l0.81,0M13.373,67.608l1.826,0M15.769,67.608l0.621,0M13.324,67.536l1.767,0M15.844,67.536l0.489,0M13.275,67.464l1.716,0M15.896,67.464l0.38,0M13.226,67.392l1.668,0M15.912,67.392l0.3,0M13.192,67.32l1.618,0M15.912,67.32l0.212,0M13.163,67.248l1.581,0M15.912,67.248l0.124,0M13.134,67.176l1.552,0M15.912,67.176l0.036,0M13.123,67.104l1.518,0M13.114,67.031l1.484,0M13.105,66.96l1.463,0M13.114,66.888l1.428,0M13.123,66.816l1.404,0M13.134,66.744l1.396,0M13.163,66.672l1.38,0M13.19,66.6l1.374,0M13.229,66.528l1.367,0M13.281,66.456l1.359,0M13.335,66.384l1.367,0M13.411,66.312l1.368,0M13.487,66.24l1.426,0M13.575,66.168l1.813,0M13.675,66.096l1.619,0M13.788,66.024l1.365,0M13.933,65.952l1.054,0M14.168,65.88l0.558,0" fill="none" stroke-linecap="round"/>
      </g>
     </g>
    </g>
    <g >
     <title >element:U$3</title>
     <g >
      <title >package:OSHW-LOGO-S</title>
     </g>
    </g>
    <g >
     <title >element:U$11</title>
     <g >
      <title >package:SFE-NEW-WEBLOGO</title>
     </g>
    </g>
    <g >
     <title >element:U1</title>
     <g >
      <title >package:TQFP32-08</title>
      <polygon  fill="#333333" points="39.251,54,25.2,68.051,11.149,54,24.488,40.66,25.912,40.66"/>
     </g>
    </g>
   </g>
  </g>
  <circle  stroke-width="1.224" stroke="#9A916C" fill="none" id="connector14pin" cx="43.2" cy="3.6" r="2.052"/>
  <circle  stroke-width="1.224" stroke="#9A916C" fill="none" id="connector15pin" cx="36" cy="3.6" r="2.052"/>
  <circle  stroke-width="1.224" stroke="#9A916C" fill="none" id="connector16pin" cx="28.8" cy="3.6" r="2.052"/>
  <circle  stroke-width="1.224" stroke="#9A916C" fill="none" id="connector17pin" cx="21.6" cy="3.6" r="2.052"/>
  <circle  stroke-width="1.224" stroke="#9A916C" fill="none" id="connector18pin" cx="14.4" cy="3.6" r="2.052"/>
  <circle  stroke-width="1.224" stroke="#9A916C" fill="none" id="connector19pin" cx="7.2" cy="3.6" r="2.052"/>
  <circle  stroke-width="1.224" stroke="#9A916C" fill="none" id="connector20pin" cx="38.52" cy="42.84" r="2.052"/>
  <circle  stroke-width="1.224" stroke="#9A916C" fill="none" id="connector21pin" cx="38.52" cy="35.64" r="2.052"/>
  <circle  stroke-width="1.224" stroke="#9A916C" fill="none" id="connector25pin" cx="46.8" cy="10.8" r="2.052"/>
  <circle  stroke-width="1.224" stroke="#9A916C" fill="none" id="connector26pin" cx="46.8" cy="18" r="2.052"/>
  <circle  stroke-width="1.224" stroke="#9A916C" fill="none" id="connector27pin" cx="46.8" cy="25.2" r="2.052"/>
  <circle  stroke-width="1.224" stroke="#9A916C" fill="none" id="connector28pin" cx="46.8" cy="32.4" r="2.052"/>
  <circle  stroke-width="1.224" stroke="#9A916C" fill="none" id="connector29pin" cx="46.8" cy="39.6" r="2.052"/>
  <circle  stroke-width="1.224" stroke="#9A916C" fill="none" id="connector30pin" cx="46.8" cy="46.8" r="2.052"/>
  <circle  stroke-width="1.224" stroke="#9A916C" fill="none" id="connector31pin" cx="46.8" cy="54" r="2.052"/>
  <circle  stroke-width="1.224" stroke="#9A916C" fill="none" id="connector32pin" cx="46.8" cy="61.2" r="2.052"/>
  <circle  stroke-width="1.224" stroke="#9A916C" fill="none" id="connector33pin" cx="46.8" cy="68.4" r="2.052"/>
  <circle  stroke-width="1.224" stroke="#9A916C" fill="none" id="connector34pin" cx="46.8" cy="75.6" r="2.052"/>
  <circle  stroke-width="1.224" stroke="#9A916C" fill="none" id="connector35pin" cx="46.8" cy="82.8" r="2.052"/>
  <circle  stroke-width="1.224" stroke="#9A916C" fill="none" id="connector36pin" cx="46.8" cy="90" r="2.052"/>
  <circle  stroke-width="1.224" stroke="#9A916C" fill="none" id="connector37pin" cx="3.6" cy="90" r="2.052"/>
  <circle  stroke-width="1.224" stroke="#9A916C" fill="none" id="connector38pin" cx="3.6" cy="82.8" r="2.052"/>
  <circle  stroke-width="1.224" stroke="#9A916C" fill="none" id="connector39pin" cx="3.6" cy="75.6" r="2.052"/>
  <circle  stroke-width="1.224" stroke="#9A916C" fill="none" id="connector40pin" cx="3.6" cy="68.4" r="2.052"/>
  <circle  stroke-width="1.224" stroke="#9A916C" fill="none" id="connector41pin" cx="3.6" cy="61.2" r="2.052"/>
  <circle  stroke-width="1.224" stroke="#9A916C" fill="none" id="connector42pin" cx="3.6" cy="54" r="2.052"/>
  <circle  stroke-width="1.224" stroke="#9A916C" fill="none" id="connector43pin" cx="3.6" cy="46.8" r="2.052"/>
  <circle  stroke-width="1.224" stroke="#9A916C" fill="none" id="connector44pin" cx="3.6" cy="39.6" r="2.052"/>
  <circle  stroke-width="1.224" stroke="#9A916C" fill="none" id="connector45pin" cx="3.6" cy="32.4" r="2.052"/>
  <circle  stroke-width="1.224" stroke="#9A916C" fill="none" id="connector46pin" cx="3.6" cy="25.2" r="2.052"/>
  <circle  stroke-width="1.224" stroke="#9A916C" fill="none" id="connector47pin" cx="3.6" cy="18" r="2.052"/>
  <circle  stroke-width="1.224" stroke="#9A916C" fill="none" id="connector48pin" cx="3.6" cy="10.8" r="2.052"/>
 </g>
 <g transform="matrix(1, 0, 0, 1, 26.2068, 69.663)">
  <g  id="_x30_402-cap_1_">
   <g transform="matrix(-1, 0, 0, -1, 2.559, 5.67)">
    <g >
     <g transform="matrix(1, 0, 0, 1, 10.275, 76.1789)">
      <g  id="_x30_402-cap">
       <g transform="matrix(0, 1, -1, 0, 4.1105, -1.5595)">
        <g >
         <g >
          <g >
           <g transform="matrix(-2.54711e-06, -1, 1, -2.54711e-06, -84.8837, -58.6858)">
            <rect  width="2.559" x="-73.064" fill="#534741" y="10.264" height="5.67"/>
           </g>
           <g transform="matrix(-2.54711e-06, -1, 1, -2.54711e-06, -86.1523, -57.4192)">
            <rect  width="0.021" x="-71.796" opacity="0.2" y="11.531" enable-background="new    " height="5.67"/>
           </g>
           <g transform="matrix(-2.54711e-06, -1, 1, -2.54711e-06, -83.6201, -59.9514)">
            <rect  width="0.031" x="-71.801" opacity="0.2" fill="#FFFFFF" y="8.999" enable-background="new    " height="5.67"/>
           </g>
          </g>
          <g >
           <path  d="M-69.771,11.819L-69.771,11.819L-69.771,11.819l-0.065,0l0,0c-0.06,0.171,-0.1,0.813,-0.1,1.002c0,0.199,0.035,1.379,0.1,1.559l0.89,0l0,-2.561L-69.771,11.819z" fill="#DCDCDC"/>
           <path  d="M-73.733,11.89l0,-0.071l-0.887,0l0,2.56l0.887,0c0.063,-0.183,0.139,-1.354,0.139,-1.558C-73.595,12.586,-73.649,12.095,-73.733,11.89z" fill="#DCDCDC"/>
           <g transform="matrix(-2.54711e-06, -1, 1, -2.54711e-06, -88.538, -59.8147)">
            <rect  width="0.029" x="-74.191" opacity="0.15" y="13.918" enable-background="new    " height="0.887"/>
           </g>
           <g transform="matrix(-2.54711e-06, -1, 1, -2.54711e-06, -86.0117, -62.341)">
            <rect  width="0.031" x="-74.192" opacity="0.5" fill="#FFFFFF" y="11.392" enable-background="new    " height="0.887"/>
           </g>
           <path  d="M-68.949,14.378l-0.89,0" fill="#D1C690"/>
           <g transform="matrix(-2.54711e-06, -1, 1, -2.54711e-06, -83.7553, -55.0319)">
            <rect  width="0.029" x="-69.408" opacity="0.15" y="13.918" enable-background="new    " height="0.888"/>
           </g>
           <g transform="matrix(-2.54711e-06, -1, 1, -2.54711e-06, -81.228, -57.5583)">
            <rect  width="0.03" x="-69.408" opacity="0.5" fill="#FFFFFF" y="11.39" enable-background="new    " height="0.889"/>
           </g>
           <line  y1="14.377" fill="none" x1="-74.078" x2="-74.078" y2="14.377"/>
          </g>
         </g>
        </g>
       </g>
      </g>
     </g>
     <rect  width="2.542" x="0.016" opacity="0.1" y="5.566" enable-background="new    " height="0.116"/>
     <rect  width="2.542" x="0.016" opacity="0.2" fill="#FFFFFF" y="0" enable-background="new    " height="0.116"/>
    </g>
   </g>
  </g>
 </g>
 <g transform="matrix(1, 0, 0, 1, 16.2225, 34.7313)">
  <g  id="_x30_402-cap_3_">
   <g transform="matrix(1, 0, 0, 1, 10.275, 76.1789)">
    <g  id="_x30_402-cap_2_">
     <g transform="matrix(0, 1, -1, 0, 4.1105, -1.5595)">
      <g >
       <g >
        <g >
         <g transform="matrix(2.57889e-06, 1, -1, 2.57889e-06, -58.6858, 84.884)">
          <rect  width="2.56" x="-73.065" fill="#534741" y="10.264" height="5.67"/>
         </g>
         <g transform="matrix(2.57889e-06, 1, -1, 2.57889e-06, -57.4187, 86.152)">
          <rect  width="0.021" x="-71.796" opacity="0.2" y="11.531" enable-background="new    " height="5.671"/>
         </g>
         <g transform="matrix(2.57889e-06, 1, -1, 2.57889e-06, -59.9505, 83.6193)">
          <rect  width="0.03" x="-71.8" opacity="0.2" fill="#FFFFFF" y="8.999" enable-background="new    " height="5.67"/>
         </g>
        </g>
        <g >
         <path  d="M-69.771,11.819L-69.771,11.819L-69.771,11.819l-0.063,0l0,0c-0.062,0.171,-0.102,0.812,-0.102,1.002c0,0.199,0.035,1.379,0.102,1.557l0.888,0l0,-2.559L-69.771,11.819z" fill="#DCDCDC"/>
         <path  d="M-73.733,11.891l0,-0.071l-0.887,0l0,2.558l0.887,0c0.063,-0.181,0.141,-1.354,0.141,-1.556C-73.595,12.586,-73.649,12.095,-73.733,11.891z" fill="#DCDCDC"/>
         <g transform="matrix(2.57889e-06, 1, -1, 2.57889e-06, -59.8152, 88.5378)">
          <rect  width="0.029" x="-74.191" opacity="0.15" y="13.918" enable-background="new    " height="0.887"/>
         </g>
         <g transform="matrix(2.57889e-06, 1, -1, 2.57889e-06, -62.3411, 86.0109)">
          <rect  width="0.031" x="-74.192" opacity="0.5" fill="#FFFFFF" y="11.391" enable-background="new    " height="0.888"/>
         </g>
         <path  d="M-68.949,14.378l-0.888,0" fill="#D1C690"/>
         <g transform="matrix(2.57889e-06, 1, -1, 2.57889e-06, -55.0325, 83.7541)">
          <rect  width="0.03" x="-69.409" opacity="0.15" y="13.916" enable-background="new    " height="0.889"/>
         </g>
         <g transform="matrix(2.57889e-06, 1, -1, 2.57889e-06, -57.5598, 81.2258)">
          <rect  width="0.031" x="-69.409" opacity="0.5" fill="#FFFFFF" y="11.389" enable-background="new    " height="0.888"/>
         </g>
         <line  y1="14.377" fill="none" x1="-74.077" x2="-74.077" y2="14.377"/>
        </g>
       </g>
      </g>
     </g>
    </g>
   </g>
   <rect  width="2.542" x="0.015" opacity="0.1" y="5.566" enable-background="new    " height="0.116"/>
   <rect  width="2.542" x="0.015" opacity="0.2" fill="#FFFFFF" y="0" enable-background="new    " height="0.114"/>
  </g>
 </g>
 <g transform="matrix(1, 0, 0, 1, 6.84996, 22.7107)">
  <g  id="eia3216">
   <g transform="matrix(0, 1, -1, 0, 9.7915, -3.5475)">
    <g >
     <g transform="matrix(2.57889e-06, 1, -1, 2.57889e-06, 9.7922, -3.5469)">
      <rect  width="6.243" x="3.548" fill="#333333" y="-3.547" height="13.339"/>
     </g>
     <path  d="M2.086,0.022L0,0.022L0,6.24l2.086,0L2.086,0.022z" fill="#CCCCCC"/>
     <path  d="M13.341,6.244l-2.088,0" fill="#D1C690"/>
     <line  y1="6.24" fill="none" x1="1.276" x2="1.276" y2="6.24"/>
     <g transform="matrix(2.57889e-06, 1, -1, 2.57889e-06, 12.8338, -0.5073)">
      <rect  width="0.125" x="6.608" opacity="0.1" y="-0.507" enable-background="new    " height="13.341"/>
     </g>
     <g transform="matrix(2.57889e-06, 1, -1, 2.57889e-06, 6.7532, -6.5849)">
      <rect  width="0.125" x="6.607" opacity="0.2" fill="#FFFFFF" y="-6.585" enable-background="new    " height="13.338"/>
     </g>
     <g >
      <g transform="matrix(1, 0, 0, 1, 3.6915, 4.3908)">
       <text  font-family="'OCRA'" fill="#CCCCCC" font-size="2.6726">C106</text>
      </g>
     </g>
    </g>
   </g>
  </g>
 </g>
 <g transform="matrix(1, 0, 0, 1, 29.8899, 22.7107)">
  <g  id="eia3216_1_">
   <g transform="matrix(0, 1, -1, 0, 9.7915, -3.5475)">
    <g >
     <g transform="matrix(2.57889e-06, 1, -1, 2.57889e-06, 9.7922, -3.5469)">
      <rect  width="6.243" x="3.548" fill="#333333" y="-3.547" height="13.339"/>
     </g>
     <path  d="M2.086,0.023L0,0.023L0,6.24l2.086,0L2.086,0.023z" fill="#CCCCCC"/>
     <path  d="M13.341,6.244l-2.088,0" fill="#D1C690"/>
     <line  y1="6.24" fill="none" x1="1.276" x2="1.276" y2="6.24"/>
     <g transform="matrix(2.57889e-06, 1, -1, 2.57889e-06, 12.8332, -0.5069)">
      <rect  width="0.125" x="6.608" opacity="0.1" y="-0.508" enable-background="new    " height="13.342"/>
     </g>
     <g transform="matrix(2.57889e-06, 1, -1, 2.57889e-06, 6.7531, -6.585)">
      <rect  width="0.125" x="6.607" opacity="0.2" fill="#FFFFFF" y="-6.585" enable-background="new    " height="13.338"/>
     </g>
     <g >
      <g transform="matrix(1, 0, 0, 1, 3.6915, 4.3917)">
       <text  font-family="'OCRA'" fill="#CCCCCC" font-size="2.6726">C106</text>
      </g>
     </g>
    </g>
   </g>
  </g>
 </g>
 <g transform="matrix(1, 0, 0, 1, 37.1205, 82.7431)">
  <g  id="led-0603">
   <g transform="matrix(-1, 0, 0, -1, 2.535, 6.542)">
    <g >
     <g transform="matrix(1, 0, 0, 1, 21.5539, 31.3385)">
      <g  id="led-0603_1_">
       <g transform="matrix(0, -1, 1, 0, 1.7065, 4.8135)">
        <g >
         <g >
          <g >
           <g transform="matrix(2.57889e-06, 1, -1, 2.57889e-06, 11.4431, -54.295)">
            <rect  width="1.398" x="32.17" fill="#DCDCDC" y="-24.637" height="6.422"/>
           </g>
           <line  y1="-20.764" fill="none" x1="29.659" x2="36.081" y2="-20.764"/>
          </g>
          <g >
           <g transform="matrix(2.57889e-06, 1, -1, 2.57889e-06, 10.8694, -54.8677)">
            <rect  width="2.477" x="31.63" fill="#F2F2F2" y="-24.252" height="4.505"/>
           </g>
           <path  d="M34.408,-20.762c0,0,-0.168,-0.467,0.052,-0.426c0.218,0.041,0.54,-0.148,0.676,0l-0.015,0.424L34.408,-20.762z" fill="#22B573" fill-opacity="0.7"/>
           <g >
            <g >
             <g transform="matrix(2.57889e-06, 1, -1, 2.57889e-06, 10.8044, -54.9337)">
              <rect  width="0.961" x="32.389" fill="#FFFFFF" y="-22.491" height="0.854"/>
             </g>
             <g transform="matrix(2.57889e-06, 1, -1, 2.57889e-06, 11.2859, -54.4512)">
              <rect  width="0.05" x="32.844" fill="#B3B3B3" y="-22.01" height="0.854"/>
             </g>
            </g>
            <g >
             <polygon  fill="#D1C690" points="34.172,-21.186,35.135,-21.082,35.135,-21.813,34.172,-21.709"/>
             <g >
              <path  d="M34.46,-21.385c-0.002,0,-0.005,0,-0.007,0c-0.269,-0.035,-0.449,-0.105,-0.598,-0.162c-0.209,-0.08,-0.361,-0.141,-0.635,-0.055c-0.025,0.012,-0.059,-0.011,-0.064,-0.043c-0.008,-0.035,0.009,-0.068,0.039,-0.078c0.303,-0.094,0.478,-0.025,0.695,0.059c0.148,0.061,0.318,0.123,0.572,0.156c0.03,0.004,0.054,0.033,0.049,0.068C34.511,-21.409,34.487,-21.385,34.46,-21.385z" fill="#D1C690"/>
             </g>
             <polygon  fill="#D1C690" points="31.567,-22.715,30.602,-22.819,30.602,-22.088,31.567,-22.192"/>
             <g >
              <path  d="M32.827,-21.911c-0.025,0,-0.049,-0.02,-0.055,-0.047c-0.063,-0.291,-0.949,-0.42,-1.492,-0.436c-0.033,0,-0.059,-0.027,-0.059,-0.063c0.002,-0.035,0.025,-0.063,0.059,-0.063l0.002,0c0.15,0.004,1.498,0.053,1.6,0.527c0.007,0.035,-0.012,0.068,-0.042,0.078C32.836,-21.911,32.832,-21.911,32.827,-21.911z" fill="#D1C690"/>
             </g>
             <path  d="M33.297,-21.895c0,0,-0.354,-0.002,-0.382,0.311c0.071,0,0.382,0,0.382,0L33.297,-21.895z" fill="#D1C690"/>
             <path  d="M32.863,-22.213c0,0,0.158,0.305,0.052,0.351c-0.107,0.048,-0.178,0.052,-0.24,-0.028C32.614,-21.975,32.863,-22.213,32.863,-22.213z" fill="#D1C690"/>
             <path  d="M33.222,-21.545c0.271,-0.084,0.425,-0.023,0.634,0.055c0.146,0.061,0.329,0.128,0.598,0.162l0.001,-0.057c-0.269,-0.035,-0.449,-0.105,-0.598,-0.162c-0.209,-0.08,-0.361,-0.141,-0.635,-0.055L33.222,-21.545z" fill="#9D956C"/>
             <polygon  fill="#9D956C" points="31.567,-22.137,30.602,-22.034,30.602,-22.088,31.567,-22.192"/>
             <path  d="M32.77,-21.901c-0.063,-0.291,-0.947,-0.421,-1.492,-0.436l0,-0.059c0.545,0.016,1.434,0.145,1.494,0.436L32.77,-21.901z" fill="#9D956C"/>
             <path  d="M32.914,-21.527c0.071,0,0.382,0,0.382,0l0,-0.059c0,0,-0.311,0,-0.382,0L32.914,-21.527z" fill="#9D956C"/>
             <path  d="M32.674,-21.838c0.063,0.08,0.131,0.076,0.239,0.031l0.001,-0.061c-0.107,0.051,-0.178,0.053,-0.24,-0.027L32.674,-21.838z" fill="#9D956C"/>
            </g>
           </g>
           <g transform="matrix(2.57889e-06, 1, -1, 2.57889e-06, 9.6574, -56.0797)">
            <rect  width="0.053" x="32.842" opacity="0.5" fill="#FFFFFF" y="-24.942" enable-background="new    " height="3.462"/>
           </g>
           <g  opacity="0.25">
            <path  d="M32.329,-22.489c0,-0.049,0.035,-0.088,0.076,-0.088l0.326,0c0.043,0,0.076,-0.039,0.076,-0.086l0,-0.032c0,0.05,-0.033,0.089,-0.076,0.089l-0.326,0c-0.043,0,-0.078,0.039,-0.078,0.086L32.329,-22.489L32.329,-22.489z" fill="#FFFFFF"/>
            <path  d="M34.319,-22.817c0,-0.051,-0.036,-0.089,-0.077,-0.089l-1.356,0c-0.043,0,-0.076,0.038,-0.076,0.089l0,-0.033c0,-0.049,0.032,-0.088,0.076,-0.088l1.356,0c0.041,0,0.077,0.039,0.077,0.088L34.319,-22.817z" fill="#FFFFFF"/>
            <path  d="M34.6,-21.344l-0.207,0c-0.041,0,-0.073,-0.039,-0.073,-0.088l0,-0.031c0,0.047,0.032,0.086,0.073,0.086l0.206,0L34.6,-21.344L34.6,-21.344z" fill="#FFFFFF"/>
            <path  d="M31.137,-22.905l1.029,0c0.041,0,0.078,0.039,0.078,0.09l0,-0.033c0,-0.049,-0.035,-0.088,-0.078,-0.088l-1.029,0L31.137,-22.905z" fill="#FFFFFF"/>
           </g>
           <g >
            <path  d="M30.618,-23.237l0,2.476l4.505,0l0,-2.476L30.618,-23.237z" opacity="0.5" fill="#F2F2F2" enable-background="new    "/>
            <path  d="M30.669,-22.584l0,-0.27c0.016,-0.152,-0.012,-0.271,0.096,-0.271c0.613,0,3.944,0,4.098,0c0.167,0,0.175,0.066,-0.014,0.066c-0.131,0,-3.133,0,-3.586,0c-0.457,0,-0.518,0.104,-0.518,0.196l0.002,0.272C30.747,-22.411,30.669,-22.411,30.669,-22.584z" opacity="0.55" fill="#FFFFFF" enable-background="new    "/>
            <path  d="M35.073,-20.983c0,0.066,0.012,0.137,-0.099,0.137c-0.61,0,-3.942,0,-4.095,0c-0.168,0,-0.176,-0.066,0.008,-0.066c0.137,0,3.139,-0.002,3.593,-0.002C35.073,-20.914,35.073,-20.983,35.073,-20.983z" opacity="0.03" enable-background="new    "/>
           </g>
          </g>
          <g >
           <path  d="M29.661,-20.762l0.77,0l0,-0.521c0,-0.125,0.082,-0.213,0.188,-0.268l0,-1.688L29.61,-23.239l0,2.427l0,0.049" fill="#D1C690"/>
           <g transform="matrix(2.57889e-06, 1, -1, 2.57889e-06, 6.9011, -53.3253)">
            <rect  width="0.051" x="30.088" opacity="0.5" fill="#FFFFFF" y="-23.715" enable-background="new    " height="1.006"/>
           </g>
          </g>
          <g >
           <path  d="M36.13,-20.762l0,-0.049l0,-2.427l-1.009,0l0,2.104c0.104,0.055,0.188,0.146,0.188,0.271l0,0.099l0.771,0" fill="#D1C690"/>
           <g transform="matrix(2.57889e-06, 1, -1, 2.57889e-06, 12.4143, -58.8365)">
            <rect  width="0.053" x="35.599" opacity="0.5" fill="#FFFFFF" y="-23.715" enable-background="new    " height="1.009"/>
           </g>
          </g>
         </g>
        </g>
       </g>
      </g>
     </g>
    </g>
   </g>
  </g>
 </g>
 <g transform="matrix(1, 0, 0, 1, 23.5464, 29.621)">
  <g  id="led-0603_3_">
   <g transform="matrix(0, -1, 1, 0, -2.0035, 4.5385)">
    <g >
     <g transform="matrix(1, 0, 0, 1, 21.5539, 31.3385)">
      <g  id="led-0603_2_">
       <g transform="matrix(0, -1, 1, 0, 1.7065, 4.8135)">
        <g >
         <g >
          <g >
           <rect  width="6.422" x="29.659" fill="#DCDCDC" y="-22.126" height="1.399"/>
           <line  y1="-20.764" fill="none" x1="29.659" x2="36.081" y2="-20.764"/>
          </g>
          <g >
           <rect  width="4.505" x="30.616" fill="#F2F2F2" y="-23.237" height="2.475"/>
           <path  d="M34.408,-20.762c0,0,-0.168,-0.467,0.052,-0.426c0.218,0.041,0.54,-0.146,0.676,0l-0.015,0.424L34.408,-20.762z" fill="#22B573" fill-opacity="0.7"/>
           <g >
            <g >
             <rect  width="0.854" x="32.441" fill="#FFFFFF" y="-22.544" height="0.962"/>
             <rect  width="0.854" x="32.442" fill="#B3B3B3" y="-21.608" height="0.05"/>
            </g>
            <g >
             <polygon  fill="#D1C690" points="34.172,-21.186,35.135,-21.082,35.135,-21.813,34.172,-21.709"/>
             <g >
              <path  d="M34.46,-21.385c-0.002,0,-0.005,0,-0.007,0c-0.267,-0.033,-0.449,-0.104,-0.598,-0.162c-0.209,-0.078,-0.361,-0.141,-0.633,-0.055c-0.027,0.012,-0.061,-0.01,-0.066,-0.043c-0.008,-0.035,0.009,-0.068,0.039,-0.078c0.303,-0.094,0.478,-0.023,0.697,0.061c0.146,0.059,0.316,0.123,0.57,0.154c0.03,0.004,0.056,0.033,0.05,0.068C34.511,-21.409,34.487,-21.385,34.46,-21.385z" fill="#D1C690"/>
             </g>
             <polygon  fill="#D1C690" points="31.567,-22.715,30.602,-22.819,30.602,-22.088,31.567,-22.192"/>
             <g >
              <path  d="M32.827,-21.911c-0.025,0,-0.049,-0.021,-0.055,-0.047c-0.063,-0.291,-0.949,-0.42,-1.492,-0.438c-0.033,0,-0.057,-0.027,-0.057,-0.063c0.002,-0.035,0.023,-0.063,0.057,-0.063l0.002,0c0.152,0.004,1.498,0.053,1.6,0.529c0.009,0.035,-0.012,0.066,-0.042,0.078C32.836,-21.911,32.832,-21.911,32.827,-21.911z" fill="#D1C690"/>
             </g>
             <path  d="M33.297,-21.895c0,0,-0.354,-0.002,-0.382,0.313c0.071,0,0.382,0,0.382,0L33.297,-21.895z" fill="#D1C690"/>
             <path  d="M32.863,-22.213c0,0,0.158,0.307,0.052,0.352c-0.105,0.047,-0.178,0.051,-0.24,-0.029C32.614,-21.975,32.863,-22.213,32.863,-22.213z" fill="#D1C690"/>
             <path  d="M33.222,-21.544c0.271,-0.086,0.423,-0.025,0.632,0.055c0.146,0.059,0.331,0.127,0.598,0.162l0.001,-0.059c-0.267,-0.033,-0.449,-0.104,-0.598,-0.162c-0.209,-0.078,-0.361,-0.141,-0.633,-0.055L33.222,-21.544z" fill="#9D956C"/>
             <polygon  fill="#9D956C" points="31.567,-22.137,30.602,-22.034,30.602,-22.088,31.567,-22.192"/>
             <path  d="M32.77,-21.901c-0.063,-0.291,-0.947,-0.42,-1.492,-0.434l0,-0.061c0.545,0.018,1.434,0.146,1.494,0.438L32.77,-21.901z" fill="#9D956C"/>
             <path  d="M32.914,-21.528c0.071,0,0.382,0,0.382,0l0,-0.057c0,0,-0.311,0,-0.382,0L32.914,-21.528z" fill="#9D956C"/>
             <path  d="M32.674,-21.838c0.063,0.08,0.133,0.076,0.239,0.031l0.001,-0.059c-0.105,0.049,-0.178,0.051,-0.24,-0.029L32.674,-21.838z" fill="#9D956C"/>
            </g>
           </g>
           <rect  width="3.463" x="31.138" opacity="0.5" fill="#FFFFFF" y="-23.237" enable-background="new    " height="0.051"/>
           <g  opacity="0.25">
            <path  d="M32.329,-22.489c0,-0.049,0.035,-0.088,0.076,-0.088l0.326,0c0.043,0,0.078,-0.039,0.078,-0.086l0,-0.033c0,0.049,-0.035,0.088,-0.078,0.088l-0.326,0c-0.043,0,-0.078,0.039,-0.078,0.086L32.329,-22.489L32.329,-22.489z" fill="#FFFFFF"/>
            <path  d="M34.319,-22.817c0,-0.049,-0.036,-0.088,-0.077,-0.088l-1.356,0c-0.043,0,-0.074,0.039,-0.074,0.088l0,-0.033c0,-0.049,0.03,-0.088,0.074,-0.088l1.356,0c0.041,0,0.077,0.039,0.077,0.088L34.319,-22.817z" fill="#FFFFFF"/>
            <path  d="M34.6,-21.344l-0.207,0c-0.041,0,-0.075,-0.039,-0.075,-0.088l0,-0.031c0,0.049,0.034,0.088,0.075,0.088l0.206,0L34.6,-21.344L34.6,-21.344z" fill="#FFFFFF"/>
            <path  d="M31.138,-22.905l1.028,0c0.041,0,0.078,0.039,0.078,0.088l0,-0.033c0,-0.049,-0.035,-0.088,-0.078,-0.088l-1.028,0L31.138,-22.905z" fill="#FFFFFF"/>
           </g>
           <g >
            <path  d="M30.618,-23.237l0,2.475l4.505,0l0,-2.475L30.618,-23.237z" opacity="0.5" fill="#F2F2F2" enable-background="new    "/>
            <path  d="M30.669,-22.584l0,-0.271c0.018,-0.152,-0.012,-0.27,0.098,-0.27c0.611,0,3.942,0,4.096,0c0.167,0,0.175,0.064,-0.012,0.064c-0.133,0,-3.135,0,-3.586,0c-0.457,0,-0.52,0.105,-0.52,0.197l0.002,0.271C30.747,-22.411,30.669,-22.411,30.669,-22.584z" opacity="0.55" fill="#FFFFFF" enable-background="new    "/>
            <path  d="M35.073,-20.983c0,0.068,0.012,0.137,-0.097,0.137c-0.612,0,-3.944,0,-4.097,0c-0.168,0,-0.176,-0.064,0.01,-0.064c0.135,0,3.137,-0.002,3.591,-0.002C35.073,-20.914,35.073,-20.983,35.073,-20.983z" opacity="0.03" enable-background="new    "/>
           </g>
          </g>
          <g >
           <path  d="M29.661,-20.762l0.771,0l0,-0.52c0,-0.125,0.082,-0.213,0.188,-0.27l0,-1.688l-1.01,0l0,2.426l0,0.049" fill="#D1C690"/>
           <rect  width="1.006" x="29.61" opacity="0.5" fill="#FFFFFF" y="-23.237" enable-background="new    " height="0.051"/>
          </g>
          <g >
           <path  d="M36.13,-20.762l0,-0.049l0,-2.426l-1.009,0l0,2.104c0.105,0.057,0.19,0.146,0.19,0.271l0,0.098l0.769,0" fill="#D1C690"/>
           <rect  width="1.009" x="35.121" opacity="0.5" fill="#FFFFFF" y="-23.237" enable-background="new    " height="0.051"/>
          </g>
         </g>
        </g>
       </g>
      </g>
     </g>
    </g>
   </g>
  </g>
 </g>
 <g transform="matrix(1, 0, 0, 1, 11.8305, 81.8194)">
  <g  id="_x30_402-res">
   <g transform="matrix(1, 0, 0, 1, 10.275, 83.3789)">
    <g  id="_x30_402-res_1_">
     <g transform="matrix(0, 1, -1, 0, 4.1105, -1.5595)">
      <g >
       <g >
        <g >
         <g transform="matrix(2.57889e-06, 1, -1, 2.57889e-06, -65.8767, 92.0896)">
          <rect  width="2.56" x="-80.263" fill="#333333" y="10.271" height="5.67"/>
         </g>
         <g transform="matrix(2.57889e-06, 1, -1, 2.57889e-06, -64.6106, 93.3577)">
          <rect  width="0.021" x="-78.995" opacity="0.2" y="11.539" enable-background="new    " height="5.67"/>
         </g>
        </g>
        <g >
         <path  d="M-76.971,11.827L-76.971,11.827L-76.971,11.827l-0.065,0l0,0c-0.061,0.173,-0.102,0.813,-0.102,1.002c0,0.199,0.034,1.382,0.102,1.559l0.888,0l0,-2.561L-76.971,11.827z" fill="#CCCCCC"/>
         <path  d="M-80.933,11.898l0,-0.071l-0.887,0l0,2.56l0.887,0c0.063,-0.183,0.117,-1.078,0.117,-1.279C-80.815,12.87,-80.849,12.103,-80.933,11.898z" fill="#CCCCCC"/>
         <g transform="matrix(2.57889e-06, 1, -1, 2.57889e-06, -67.0066, 95.7459)">
          <rect  width="0.029" x="-81.391" opacity="0.15" y="13.926" enable-background="new    " height="0.888"/>
         </g>
         <g transform="matrix(2.57889e-06, 1, -1, 2.57889e-06, -69.5334, 93.219)">
          <rect  width="0.03" x="-81.391" opacity="0.5" fill="#FFFFFF" y="11.399" enable-background="new    " height="0.888"/>
         </g>
         <g transform="matrix(2.57889e-06, 1, -1, 2.57889e-06, -62.2239, 90.9622)">
          <rect  width="0.03" x="-76.608" opacity="0.15" y="13.925" enable-background="new    " height="0.888"/>
         </g>
         <g transform="matrix(2.57889e-06, 1, -1, 2.57889e-06, -64.7502, 88.4339)">
          <rect  width="0.03" x="-76.607" opacity="0.5" fill="#FFFFFF" y="11.398" enable-background="new    " height="0.888"/>
         </g>
         <line  y1="14.385" fill="none" x1="-81.277" x2="-81.277" y2="14.385"/>
        </g>
       </g>
      </g>
     </g>
    </g>
   </g>
   <rect  width="2.542" x="0.016" opacity="0.1" y="5.566" enable-background="new    " height="0.116"/>
   <rect  width="2.542" x="0.016" opacity="0.2" fill="#FFFFFF" y="0" enable-background="new    " height="0.116"/>
  </g>
 </g>
 <g transform="matrix(1, 0, 0, 1, 37.0185, 76.2386)">
  <g  id="_x30_402-res_3_">
   <g transform="matrix(1, 0, 0, 1, 10.275, 83.3789)">
    <g  id="_x30_402-res_2_">
     <g transform="matrix(0, 1, -1, 0, 4.1105, -1.5595)">
      <g >
       <g >
        <g >
         <g transform="matrix(2.57889e-06, 1, -1, 2.57889e-06, -65.8769, 92.0899)">
          <rect  width="2.559" x="-80.263" fill="#333333" y="10.271" height="5.67"/>
         </g>
         <g transform="matrix(2.57889e-06, 1, -1, 2.57889e-06, -64.6103, 93.3584)">
          <rect  width="0.021" x="-78.995" opacity="0.2" y="11.539" enable-background="new    " height="5.67"/>
         </g>
        </g>
        <g >
         <path  d="M-76.97,11.827L-76.97,11.827L-76.97,11.827l-0.066,0l0,0c-0.06,0.171,-0.101,0.812,-0.101,1.002c0,0.199,0.034,1.38,0.101,1.557l0.889,0l0,-2.559L-76.97,11.827z" fill="#CCCCCC"/>
         <path  d="M-80.933,11.898l0,-0.071l-0.889,0l0,2.558l0.889,0c0.063,-0.181,0.117,-1.078,0.117,-1.277C-80.816,12.87,-80.849,12.103,-80.933,11.898z" fill="#CCCCCC"/>
         <g transform="matrix(2.57889e-06, 1, -1, 2.57889e-06, -67.0063, 95.7456)">
          <rect  width="0.03" x="-81.391" opacity="0.15" y="13.926" enable-background="new    " height="0.887"/>
         </g>
         <g transform="matrix(2.57889e-06, 1, -1, 2.57889e-06, -69.5341, 93.2178)">
          <rect  width="0.029" x="-81.391" opacity="0.5" fill="#FFFFFF" y="11.397" enable-background="new    " height="0.889"/>
         </g>
         <g transform="matrix(2.57889e-06, 1, -1, 2.57889e-06, -62.2241, 90.9624)">
          <rect  width="0.029" x="-76.608" opacity="0.15" y="13.925" enable-background="new    " height="0.888"/>
         </g>
         <g transform="matrix(2.57889e-06, 1, -1, 2.57889e-06, -64.7505, 88.4341)">
          <rect  width="0.029" x="-76.607" opacity="0.5" fill="#FFFFFF" y="11.398" enable-background="new    " height="0.888"/>
         </g>
         <line  y1="14.385" fill="none" x1="-81.277" x2="-81.277" y2="14.385"/>
        </g>
       </g>
      </g>
     </g>
    </g>
   </g>
   <rect  width="2.542" x="0.016" opacity="0.1" y="5.566" enable-background="new    " height="0.114"/>
   <rect  width="2.542" x="0.016" opacity="0.2" fill="#FFFFFF" y="0" enable-background="new    " height="0.116"/>
  </g>
 </g>
 <g transform="matrix(1, 0, 0, 1, 24.0468, 15.079)">
  <g  id="_x30_402-res_5_">
   <g transform="matrix(0, 1, -1, 0, 4.1145, 1.5555)">
    <g >
     <g transform="matrix(1, 0, 0, 1, 10.275, 83.3789)">
      <g  id="_x30_402-res_4_">
       <g transform="matrix(0, 1, -1, 0, 4.1105, -1.5595)">
        <g >
         <g >
          <g >
           <rect  width="5.671" x="-81.82" fill="#333333" y="11.826" height="2.56"/>
           <rect  width="5.67" x="-81.819" opacity="0.2" y="14.364" enable-background="new    " height="0.021"/>
          </g>
          <g >
           <path  d="M-76.97,11.827L-76.97,11.827L-76.97,11.827l-0.064,0l0,0c-0.062,0.171,-0.103,0.812,-0.103,1.002c0,0.199,0.035,1.38,0.103,1.557l0.888,0l0,-2.559L-76.97,11.827z" fill="#CCCCCC"/>
           <path  d="M-80.933,11.898l0,-0.069l-0.887,0l0,2.558l0.887,0c0.063,-0.181,0.117,-1.078,0.117,-1.279C-80.816,12.87,-80.849,12.103,-80.933,11.898z" fill="#CCCCCC"/>
           <rect  width="0.887" x="-81.82" opacity="0.15" y="14.355" enable-background="new    " height="0.03"/>
           <rect  width="0.887" x="-81.82" opacity="0.5" fill="#FFFFFF" y="11.827" enable-background="new    " height="0.029"/>
           <rect  width="0.888" x="-77.037" opacity="0.15" y="14.354" enable-background="new    " height="0.03"/>
           <rect  width="0.889" x="-77.037" opacity="0.5" fill="#FFFFFF" y="11.826" enable-background="new    " height="0.029"/>
           <line  y1="14.385" fill="none" x1="-81.277" x2="-81.277" y2="14.385"/>
          </g>
         </g>
        </g>
       </g>
      </g>
     </g>
     <g transform="matrix(2.57889e-06, 1, -1, 2.57889e-06, 6.9111, 4.3368)">
      <rect  width="0.116" x="1.229" opacity="0.1" y="4.353" enable-background="new    " height="2.542"/>
     </g>
     <g transform="matrix(2.57889e-06, 1, -1, 2.57889e-06, 1.3456, -1.2286)">
      <rect  width="0.114" x="1.23" opacity="0.2" fill="#FFFFFF" y="-1.212" enable-background="new    " height="2.542"/>
     </g>
    </g>
   </g>
  </g>
 </g>
 <g transform="matrix(1, 0, 0, 1, 17.648, 78.4886)">
  <g  id="tactile_switch_smd_2_">
   <g transform="matrix(-1, 0, 0, -1, 15.104, 15.102)">
    <g >
     <g transform="matrix(1, 0, 0, 1, 17.004, 77.8536)">
      <g  id="tactile_switch_smd_1_">
       <g transform="matrix(-1, 0, 0, -1, 16.392, 16.373)">
        <g >
         <g transform="matrix(1, 0, 0, 1, 17.021, 74.628)">
          <g  id="tactile_switch_smd">
           <g transform="matrix(-1, 0, 0, -1, 16.392, 16.392)">
            <g >
             <polygon  fill="#6D6D6D" points="1.071,8.747,3.164,10.844,11.976,10.844,14.069,8.747,14.069,-0.065,11.976,-2.156,3.164,-2.156,1.071,-0.065"/>
             <rect  width="8.813" x="3.164" fill="#6D6D6D" y="-3.207" height="15.104"/>
             <rect  width="15.104" x="0.018" fill="#6D6D6D" y="-0.065" height="8.813"/>
             <polygon  fill="#7F7F7F" points="1.703,8.32,3.593,10.211,11.547,10.211,13.439,8.32,13.439,0.365,11.547,-1.525,3.593,-1.525,1.703,0.365"/>
             <polyline  stroke-width="0.2183" stroke-miterlimit="10" stroke="#FFFFFF" opacity="0.2" fill="none" enable-background="new    " points="3.802,-1.218,2.01,0.573,2.01,8.113,3.802,9.905,11.339,9.905"/>
             <polyline  stroke-width="0.2183" stroke-miterlimit="10" stroke="#606060" opacity="0.2" fill="none" enable-background="new    " points="11.341,9.905,13.133,8.114,13.133,0.574,11.341,-1.218,3.802,-1.218"/>
             <g >
              <path  d="M7.571,7.779c-1.894,0,-3.435,-1.541,-3.435,-3.438c0,-1.893,1.541,-3.435,3.435,-3.435s3.436,1.541,3.436,3.435C11.002,6.237,9.462,7.779,7.571,7.779z" fill="#BCA16A"/>
              <path  d="M7.571,1.141c1.77,0,3.204,1.438,3.204,3.204c0,1.771,-1.437,3.204,-3.204,3.204c-1.77,0,-3.204,-1.435,-3.204,-3.204C4.367,2.573,5.802,1.141,7.571,1.141M7.571,0.68c-2.021,0,-3.665,1.646,-3.665,3.664c0,2.021,1.645,3.666,3.665,3.666c2.02,0,3.665,-1.645,3.665,-3.666C11.233,2.322,9.59,0.68,7.571,0.68L7.571,0.68z" fill="#606060"/>
             </g>
             <path  stroke-width="0.4887" stroke-miterlimit="10" stroke="#FFFFFF" d="M9.591,6.363c-1.115,1.117,-2.929,1.117,-4.045,0c-1.115,-1.117,-1.115,-2.929,0,-4.044" opacity="0.2" fill="#BCA16A" enable-background="new    "/>
             <path  stroke-width="0.4887" stroke-miterlimit="10" stroke="#606060" d="M5.547,2.32c1.116,-1.116,2.93,-1.116,4.046,0c1.115,1.117,1.115,2.927,0,4.044" opacity="0.2" fill="#BCA16A" enable-background="new    "/>
            </g>
           </g>
          </g>
         </g>
        </g>
       </g>
      </g>
     </g>
    </g>
   </g>
  </g>
 </g>
 <g transform="matrix(1, 0, 0, 1, 20.1771, 20.6032)">
  <g  id="sot23-5">
   <g transform="matrix(0, 1, -1, 0, 8.26704, 0.203004)">
    <g >
     <g >
      <g transform="matrix(2.57889e-06, 1, -1, 2.57889e-06, 7.8211, -5.7603)">
       <rect  width="2.061" x="5.76" fill="#999999" y="0.302" height="1.457"/>
      </g>
      <g transform="matrix(2.57889e-06, 1, -1, 2.57889e-06, 5.0618, -3.001)">
       <rect  width="2.061" x="3.001" fill="#999999" y="0.303" height="1.454"/>
      </g>
      <g transform="matrix(2.57889e-06, 1, -1, 2.57889e-06, 2.303, -0.2413)">
       <rect  width="2.062" x="0.241" fill="#999999" y="0.303" height="1.455"/>
      </g>
      <g transform="matrix(2.57889e-06, 1, -1, 2.57889e-06, 6.8221, -6.7593)">
       <rect  width="0.063" x="6.759" opacity="0.2" fill="#FFFFFF" y="-0.697" enable-background="new    " height="1.457"/>
      </g>
      <g transform="matrix(2.57889e-06, 1, -1, 2.57889e-06, 4.0628, -4.0001)">
       <rect  width="0.063" x="4" opacity="0.2" fill="#FFFFFF" y="-0.696" enable-background="new    " height="1.454"/>
      </g>
      <g transform="matrix(2.57889e-06, 1, -1, 2.57889e-06, 1.304, -1.2403)">
       <rect  width="0.063" x="1.24" opacity="0.2" fill="#FFFFFF" y="-0.696" enable-background="new    " height="1.455"/>
      </g>
      <g transform="matrix(2.57889e-06, 1, -1, 2.57889e-06, 11.3885, 3.3266)">
       <rect  width="2.225" x="2.919" fill="#999999" y="5.208" height="4.299"/>
      </g>
      <g transform="matrix(2.57889e-06, 1, -1, 2.57889e-06, 12.4661, 4.4042)">
       <rect  width="0.065" x="3.998" opacity="0.2" fill="#FFFFFF" y="6.286" enable-background="new    " height="4.299"/>
      </g>
      <g transform="matrix(2.57889e-06, 1, -1, 2.57889e-06, 8.1858, 0.121)">
       <rect  width="4.186" x="1.94" fill="#303030" y="0.122" height="8.063"/>
      </g>
      <polygon  fill="#1F1F1F" points="8.064,6.245,0,6.245,0.302,5.943,7.76,5.943"/>
      <polygon  fill="#1F1F1F" points="8.064,2.061,0,2.061,0.302,2.365,7.76,2.365"/>
      <polygon  points="8.064,6.245,8.064,2.061,7.76,2.365,7.76,5.943"/>
      <polygon  fill="#3D3D3D" points="0,6.245,0,2.061,0.302,2.365,0.302,5.943"/>
      <circle  fill="#1F1F1F" cx="7.154" cy="2.971" r="0.303"/>
     </g>
    </g>
   </g>
  </g>
 </g>
</g>
</g></g><path stroke='#8c8c8c' stroke-width='2.16' stroke-linecap='round' stroke-linejoin='round' fill='none' d='M138.777,43.1287L138.777,50.3287' />
<path stroke='#8c8c8c' stroke-width='2.16' stroke-linecap='round' stroke-linejoin='round' fill='none' d='M145.977,43.1287L145.977,50.3287' />
<g partID='62860'><g transform='translate(131.004,0)' ><g xmlns="http://www.w3.org/2000/svg" id="breadboard">
 <rect xmlns="http://www.w3.org/2000/svg" width="2.16" x="13.8931" fill="none" y="37.3687" id="connector1pin" height="0.72"/>
 <rect xmlns="http://www.w3.org/2000/svg" width="2.16" x="6.69312" fill="none" y="37.3687" id="connector0pin" height="0.72"/>
 <g xmlns="http://www.w3.org/2000/svg" stroke-width="2.16" y1="59.901" stroke="#8C8C8C" stroke-linecap="round" fill="none" x1="10.796" id="connector0leg" x2="10.796" y2="69.901"/>
 <g xmlns="http://www.w3.org/2000/svg" stroke-width="2.16" y1="59.901" stroke="#8C8C8C" stroke-linecap="round" fill="none" x1="20.796" id="connector1leg" x2="20.796" y2="69.901"/>
 <g xmlns="http://www.w3.org/2000/svg">
  <rect xmlns="http://www.w3.org/2000/svg" width="2.16" x="6.69312" fill="#8C8C8C" y="32.3287" height="10.8"/>
  <rect xmlns="http://www.w3.org/2000/svg" width="2.16" x="13.8931" fill="#8C8C8C" y="32.3287" height="10.8"/>
  <ellipse xmlns="http://www.w3.org/2000/svg" fill="#0D0033" cx="11.3393" cy="32.3273" rx="11.3371" ry="7.93728"/>
  <rect xmlns="http://www.w3.org/2000/svg" width="22.6685" fill="#0D0033" y="30.7102" height="1.61856"/>
  <ellipse xmlns="http://www.w3.org/2000/svg" fill="#100040" cx="11.3393" cy="31.0428" rx="11.3371" ry="7.93656"/>
  <ellipse xmlns="http://www.w3.org/2000/svg" fill="#0D0033" cx="11.3393" cy="25.5262" rx="11.3371" ry="7.93728"/>
  <rect xmlns="http://www.w3.org/2000/svg" width="22.6764" fill="#0D0033" y="8.05608" height="17.4679"/>
  <ellipse xmlns="http://www.w3.org/2000/svg" fill="#0D0033" cx="11.3393" cy="8.05608" rx="11.3371" ry="7.93728"/>
  <ellipse xmlns="http://www.w3.org/2000/svg" fill="#100040" cx="11.3393" cy="7.35264" rx="10.5012" ry="7.35264"/>
  <ellipse xmlns="http://www.w3.org/2000/svg" fill="#B2B2B2" cx="11.3393" cy="6.92712" rx="7.6968" ry="5.3892"/>
  <path xmlns="http://www.w3.org/2000/svg" d="M2.214,3.34512C0.82512,4.662,0,6.29136,0,8.05608l0,4.3848l1.51704,0l0,-0.42336l0.018,-0.15912c0,0,0,0.0828,0,-0.21384c0,-0.53064,0.252,-0.87264,0.67896,-1.04184c0.41112,-0.16272,0.38016,-3.06504,0.38016,-3.06504L2.214,3.34512z" fill="#D2EEFF"/>
  <path xmlns="http://www.w3.org/2000/svg" d="M3.64392,6.92784c0,-0.95544,0.3564,-1.8504,0.9792,-2.628l-2.4084,-0.9576C1.34064,4.41216,0.83736,5.65128,0.83736,6.97248c0,1.32048,0.50472,2.56032,1.37736,3.63168l2.466,-0.98064C4.02336,8.82936,3.64392,7.90992,3.64392,6.92784z" fill="#D2EEFF"/>
  <rect xmlns="http://www.w3.org/2000/svg" width="1.53576" fill="#D2EEFF" y="11.8591" height="13.667"/>
  <rect xmlns="http://www.w3.org/2000/svg" width="1.53576" fill="#D2EEFF" y="20.2234" height="2.61"/>
  <path xmlns="http://www.w3.org/2000/svg" d="M0,31.0442l0,1.28304c0,1.45296,0.56016,2.8116,1.53576,3.98376L1.53576,35.028l0,-6.68808l0,-1.28304C0.56016,28.2312,0,29.5913,0,31.0442z" fill="#D2EEFF"/>
  <path xmlns="http://www.w3.org/2000/svg" d="M1.53576,21.5424C0.56016,22.7117,0,24.0725,0,25.5262c0,1.45296,0.56016,2.81088,1.53576,3.98232L1.53576,21.5424z" fill="#D2EEFF"/>
  <path xmlns="http://www.w3.org/2000/svg" d="M1.53576,35.694c0,0,0,-0.29304,0,-0.666c0,-0.37512,0.07992,-1.66608,0.20664,-2.24208c0.20808,-0.94896,0.64584,-1.60416,0.64584,-2.6064c0,-0.33984,-0.19296,-0.81648,-0.4788,-1.10376c-0.28584,-0.28512,-0.3816,-0.7308,-0.3816,-1.19736c0,-0.46872,0,-1.06272,0,-1.06272l-0.65736,0.02088l0.072,8.18136L1.53576,35.694z" fill="#D2EEFF"/>
  <path xmlns="http://www.w3.org/2000/svg" d="M11.3393,1.7928c4.18968,0,7.59024,2.34648,7.68816,5.26248c0.00216,-0.0432,0.01368,-0.08568,0.01368,-0.12888c0,-2.97576,-3.44952,-5.38848,-7.69896,-5.38848c-4.24872,0,-7.69608,2.41488,-7.69608,5.38848c0,0.0432,0.0072,0.08424,0.01008,0.12888C3.74904,4.13928,7.1496,1.7928,11.3393,1.7928z" opacity="0.35"/>
  <path xmlns="http://www.w3.org/2000/svg" d="M14.6513,16.0798l0,1.854l0,9.54216c0,0,0,4.8924,0,5.08608c0,0.19296,-0.06408,0.35352,-0.14256,0.50616c-0.0936,0.17856,-0.30456,0.45072,-0.30456,0.45072c3.01968,-0.64584,5.67576,-2.39184,7.04664,-4.34808c0.09432,-0.1224,0.1908,-0.378,0.2268,-0.4896c0.03384,-0.11304,0.04536,-0.22608,0.04536,-0.22608L21.523,27.4752l0,-5.43528l0,-10.0656C20.1564,13.9313,17.6702,15.4346,14.6513,16.0798z" opacity="0.35"/>
  <path xmlns="http://www.w3.org/2000/svg" d="M21.348,33.7932c-0.10512,-0.28296,-0.41184,-0.64008,-0.41184,-0.64008c-1.36728,1.9548,-3.75408,3.00024,-6.77448,3.6432c0,0,0.27072,0.46008,0.3888,0.85464c0.1152,0.39096,0.10224,0.9828,0.10224,0.9828l0,1.28448c3.0204,-0.64512,5.508,-2.14848,6.87384,-4.10472c0,0,0,-0.89352,0,-1.12752C21.5258,34.421,21.4394,34.0265,21.348,33.7932z" opacity="0.35"/>
  <path xmlns="http://www.w3.org/2000/svg" d="M10.8302,36.2023c-0.01872,-0.27288,-0.07344,-0.51552,-0.14256,-0.7236c-4.81608,-0.21096,-8.73216,-2.7288,-9.52776,-5.99184c-0.15264,0.12096,-0.32832,0.28584,-0.43344,0.47376c-0.08352,0.15336,-0.16128,0.3816,-0.22536,0.59832c0.7704,3.57912,5.05728,6.3432,10.3219,6.51528C10.8432,36.8309,10.8533,36.5429,10.8302,36.2023z" opacity="0.2" fill="#FFFFFF"/>
  <path xmlns="http://www.w3.org/2000/svg" d="M15.5642,13.7938c0.00936,-0.17496,-0.12744,-0.29376,-0.23688,-0.34344c-0.11664,-0.04968,-0.31248,-0.12888,-0.6768,-0.03312l-0.02952,0c-1.0296,0.25488,-2.12688,0.40104,-3.28176,0.40104c-5.43744,0,-9.846,-3.08592,-9.846,-6.89184c0,-0.10728,0.01656,-0.21312,0.02304,-0.31752C1.51488,6.59808,1.50624,6.59376,1.50624,6.58296c0,-0.17064,-0.06696,-0.38952,-0.21024,-0.414c-0.1656,-0.02736,-0.24624,0.10728,-0.3276,0.28008C0.92664,6.53328,0.89712,6.65352,0.87552,6.79536C0.87336,6.81408,0.86976,6.8328,0.8676,6.85008C0.864,6.87024,0.86328,6.89184,0.86112,6.912c-0.01656,0.14688,-0.0252,0.29232,-0.0252,0.43992c0,4.06152,4.70232,7.35336,10.5034,7.35336c1.45656,0,2.83032,-0.22464,4.08528,-0.59832C15.5455,14.0472,15.5585,13.945,15.5642,13.7938z" opacity="0.2" fill="#FFFFFF"/>
  <path xmlns="http://www.w3.org/2000/svg" d="M0.7272,29.9621c-0.08352,0.15408,-0.16128,0.3816,-0.22536,0.5976c0.1908,0.89136,0.60336,1.73016,1.18944,2.49192c0.01584,-0.10152,0.0324,-0.18936,0.0504,-0.26712c0.10152,-0.46728,0.25848,-0.85824,0.39024,-1.2564c-0.45792,-0.63432,-0.79704,-1.31832,-0.972,-2.0412C1.00656,29.6078,0.83304,29.7756,0.7272,29.9621z" fill="#FFFFFF"/>
  <path xmlns="http://www.w3.org/2000/svg" d="M1.49328,6.92784c0,-0.108,0.01656,-0.21312,0.02304,-0.31752C1.51488,6.5988,1.50552,6.59448,1.50552,6.5844c0,-0.17064,-0.06696,-0.39024,-0.21024,-0.414c-0.16488,-0.0288,-0.24552,0.10584,-0.32688,0.27864c-0.04248,0.08496,-0.072,0.2052,-0.09288,0.34632C0.87264,6.81408,0.86832,6.8328,0.86616,6.85008C0.86328,6.87024,0.86184,6.89184,0.85968,6.912c-0.01512,0.14688,-0.02376,0.29232,-0.02376,0.43992c0,1.21536,0.42984,2.35656,1.17216,3.366c0.06408,-0.04248,0.1296,-0.08352,0.20592,-0.11376l0.59904,-0.23832C1.97928,9.35208,1.49328,8.18064,1.49328,6.92784z" fill="#FFFFFF"/>
 </g>
</g>
</g></g><path stroke='#8c8c8c' stroke-width='2.0952' stroke-linecap='round' stroke-linejoin='round' fill='none' d='M131.577,51.3763L131.577,50.3287' />
<path stroke='#8c8c8c' stroke-width='2.0952' stroke-linecap='round' stroke-linejoin='round' fill='none' d='M131.577,78.0862L131.577,79.1338' />
<g partID='59720'><g transform='translate(135.209,49.2811)' ><g transform='matrix(0,1,-1,0,0,0)'  ><g xmlns="http://www.w3.org/2000/svg" id="breadboard">
 <rect xmlns="http://www.w3.org/2000/svg" width="0.72" x="0.36" fill="none" y="2.5848" id="connector0pin" height="0.72"/>
 <rect xmlns="http://www.w3.org/2000/svg" width="0.72" x="29.8202" fill="none" y="2.5848" id="connector1pin" height="0.72"/>
 <line xmlns="http://www.w3.org/2000/svg" stroke-width="2.0952" y1="3.6324" stroke="#8C8C8C" stroke-linecap="round" fill="none" x1="1.0476" id="connector0leg" x2="2.0952" y2="3.6324"/>
 <line xmlns="http://www.w3.org/2000/svg" stroke-width="2.0952" y1="3.6324" stroke="#8C8C8C" stroke-linecap="round" fill="none" x1="29.8526" id="connector1leg" x2="28.805" y2="3.6324"/>
 <path xmlns="http://www.w3.org/2000/svg" stroke-width="2.0952" stroke="#8C8C8C" d="M1.0476,3.6324l28.3666,0" fill="none"/>
 <path xmlns="http://www.w3.org/2000/svg" d="M10.2478,0.49536c-0.36,-0.1656,-0.9792,-0.2952,-1.3752,-0.2952l-1.9872,0c-0.396,0,-0.72,0.324,-0.72,0.72l0,5.35608c0,0.39672,0.324,0.72,0.72,0.72l1.9872,0c0.396,0,1.0152,-0.13608,1.3752,-0.2952l0.072,-0.03528c0.36,-0.1656,0.9792,-0.2952,1.3752,-0.2952l7.1856,0c0.39672,0,1.01448,0.13608,1.37448,0.2952l0.07272,0.03528c0.36,0.1656,0.97776,0.2952,1.3752,0.2952l1.9872,0c0.39744,0,0.72,-0.32328,0.72,-0.72L24.4102,0.92016c0,-0.396,-0.32256,-0.72,-0.72,-0.72l-1.9872,0c-0.39744,0,-1.0152,0.1368,-1.3752,0.2952l-0.07272,0.036c-0.36,0.1656,-0.97776,0.2952,-1.37448,0.2952l-7.1856,0c-0.396,0,-1.0152,-0.1368,-1.3752,-0.2952L10.2478,0.49536z" fill="#D9B477" id="body"/>
 <rect xmlns="http://www.w3.org/2000/svg" width="0.70272" x="22.019" fill="#ad9f4e" y="0.19368" id="gold_band" height="6.79536"/>
 <rect xmlns="http://www.w3.org/2000/svg" width="1.8504" x="16.1726" fill="#c40808" y="0.82656" id="band_rd_multiplier" height="5.5368"/>
 <rect xmlns="http://www.w3.org/2000/svg" width="1.8504" x="12.4726" fill="#000000" y="0.82656" id="band_2_nd" height="5.5368"/>
 <path xmlns="http://www.w3.org/2000/svg" d="M10.6286,0.63936c-0.1152,-0.036,-0.2232,-0.072,-0.3096,-0.1152l-0.072,-0.036c-0.36,-0.16488,-0.9792,-0.2952,-1.3752,-0.2952l-0.0864,0l0,6.79608l0.0864,0c0.396,0,1.0152,-0.13608,1.3752,-0.2952l0.072,-0.03528c0.0864,-0.04464,0.1944,-0.07992,0.3096,-0.1152L10.6286,0.63936z" fill="#8a3d06" id="band_1_st"/>
 <path xmlns="http://www.w3.org/2000/svg" d="M23.711,4.0896L23.711,4.0896c0,0.37944,-0.13032,0.69912,-0.2952,0.69912l-1.9224,0c-0.38016,0,-0.97776,-0.05616,-1.33272,-0.1224L20.088,4.65048c-0.34488,-0.0648,-0.94896,-0.1224,-1.33344,-0.1224L11.808,4.52808c-0.3816,0,-0.9792,0.0576,-1.332,0.1224l-0.072,0.01512c-0.3456,0.06552,-0.9432,0.1224,-1.332,0.1224l-0.3168,0l-1.0008,0l-0.3096,0c-0.3816,0,-0.6984,0.29376,-0.6984,0.64512l0,0.24696L6.7464,5.8392l0,0.1728c0,0.36,0.3168,0.64512,0.6984,0.64512l1.62,0c0.3816,0,0.9792,-0.1224,1.332,-0.26712l0.072,-0.02808c0.3456,-0.14112,0.9504,-0.26496,1.332,-0.26496l6.94656,0c0.37944,0,0.97704,0.12384,1.33416,0.26568l0.07416,0.02808c0.34488,0.14472,0.94464,0.26712,1.33344,0.26712l2.2248,0c0.38088,0,0.69912,-0.2952,0.69912,-0.64512L24.413,5.472L24.413,4.49928L24.413,2.65536C24.1358,2.76336,23.711,3.06576,23.711,4.0896z" opacity="0.3" id="Shadow"/>
 <rect xmlns="http://www.w3.org/2000/svg" width="0.70272" x="22.019" opacity="0.4" y="3.48336" id="ShadowExtra" height="3.15288"/>
 <path xmlns="http://www.w3.org/2000/svg" d="M19.751,1.08576c0.22968,0,0.49104,-0.1008,0.6624,-0.1728c0.2016,-0.0792,0.57672,-0.144,0.96624,-0.144l1.46088,0c0.22464,0,0.22464,0.2448,0.22464,0.3744c0,0.1296,-0.01512,0.3816,-0.22464,0.3816l-3.06,0c-0.10728,0,-0.2304,-0.1152,-0.2304,-0.22392C19.5566,1.21536,19.6286,1.08576,19.751,1.08576z" opacity="0.25" fill="#FFFFFF" id="ReflexRight"/>
 <circle xmlns="http://www.w3.org/2000/svg" opacity="0.35" fill="#FFFFFF" id="ReflexLeft" cx="6.99984" cy="1.13616" r="0.432"/>
 <rect xmlns="http://www.w3.org/2000/svg" width="0.70272" x="22.019" opacity="0.5" fill="#FFFF33" y="0.42336" id="Reflex_gold" height="1.62"/>
 <rect xmlns="http://www.w3.org/2000/svg" width="0.70272" x="22.019" opacity="0.5" fill="#FFFFFF" y="0.78336" id="Reflex_extra" height="0.7488"/>
</g>
</g></g></g><path stroke='#8c8c8c' stroke-width='2.0952' stroke-linecap='round' stroke-linejoin='round' fill='none' d='M102.777,51.3763L102.777,50.3287' />
<path stroke='#8c8c8c' stroke-width='2.0952' stroke-linecap='round' stroke-linejoin='round' fill='none' d='M102.777,78.0862L102.777,79.1338' />
<g partID='59680'><g transform='translate(106.409,49.2811)' ><g transform='matrix(0,1,-1,0,0,0)'  ><g xmlns="http://www.w3.org/2000/svg" id="breadboard">
 <rect xmlns="http://www.w3.org/2000/svg" width="0.72" x="0.36" fill="none" y="2.5848" id="connector0pin" height="0.72"/>
 <rect xmlns="http://www.w3.org/2000/svg" width="0.72" x="29.8202" fill="none" y="2.5848" id="connector1pin" height="0.72"/>
 <line xmlns="http://www.w3.org/2000/svg" stroke-width="2.0952" y1="3.6324" stroke="#8C8C8C" stroke-linecap="round" fill="none" x1="1.0476" id="connector0leg" x2="2.0952" y2="3.6324"/>
 <line xmlns="http://www.w3.org/2000/svg" stroke-width="2.0952" y1="3.6324" stroke="#8C8C8C" stroke-linecap="round" fill="none" x1="29.8526" id="connector1leg" x2="28.805" y2="3.6324"/>
 <path xmlns="http://www.w3.org/2000/svg" stroke-width="2.0952" stroke="#8C8C8C" d="M1.0476,3.6324l28.3666,0" fill="none"/>
 <path xmlns="http://www.w3.org/2000/svg" d="M10.2478,0.49536c-0.36,-0.1656,-0.9792,-0.2952,-1.3752,-0.2952l-1.9872,0c-0.396,0,-0.72,0.324,-0.72,0.72l0,5.35608c0,0.39672,0.324,0.72,0.72,0.72l1.9872,0c0.396,0,1.0152,-0.13608,1.3752,-0.2952l0.072,-0.03528c0.36,-0.1656,0.9792,-0.2952,1.3752,-0.2952l7.1856,0c0.39672,0,1.01448,0.13608,1.37448,0.2952l0.07272,0.03528c0.36,0.1656,0.97776,0.2952,1.3752,0.2952l1.9872,0c0.39744,0,0.72,-0.32328,0.72,-0.72L24.4102,0.92016c0,-0.396,-0.32256,-0.72,-0.72,-0.72l-1.9872,0c-0.39744,0,-1.0152,0.1368,-1.3752,0.2952l-0.07272,0.036c-0.36,0.1656,-0.97776,0.2952,-1.37448,0.2952l-7.1856,0c-0.396,0,-1.0152,-0.1368,-1.3752,-0.2952L10.2478,0.49536z" fill="#D9B477" id="body"/>
 <rect xmlns="http://www.w3.org/2000/svg" width="0.70272" x="22.019" fill="#ad9f4e" y="0.19368" id="gold_band" height="6.79536"/>
 <rect xmlns="http://www.w3.org/2000/svg" width="1.8504" x="16.1726" fill="#c40808" y="0.82656" id="band_rd_multiplier" height="5.5368"/>
 <rect xmlns="http://www.w3.org/2000/svg" width="1.8504" x="12.4726" fill="#000000" y="0.82656" id="band_2_nd" height="5.5368"/>
 <path xmlns="http://www.w3.org/2000/svg" d="M10.6286,0.63936c-0.1152,-0.036,-0.2232,-0.072,-0.3096,-0.1152l-0.072,-0.036c-0.36,-0.16488,-0.9792,-0.2952,-1.3752,-0.2952l-0.0864,0l0,6.79608l0.0864,0c0.396,0,1.0152,-0.13608,1.3752,-0.2952l0.072,-0.03528c0.0864,-0.04464,0.1944,-0.07992,0.3096,-0.1152L10.6286,0.63936z" fill="#8a3d06" id="band_1_st"/>
 <path xmlns="http://www.w3.org/2000/svg" d="M23.711,4.0896L23.711,4.0896c0,0.37944,-0.13032,0.69912,-0.2952,0.69912l-1.9224,0c-0.38016,0,-0.97776,-0.05616,-1.33272,-0.1224L20.088,4.65048c-0.34488,-0.0648,-0.94896,-0.1224,-1.33344,-0.1224L11.808,4.52808c-0.3816,0,-0.9792,0.0576,-1.332,0.1224l-0.072,0.01512c-0.3456,0.06552,-0.9432,0.1224,-1.332,0.1224l-0.3168,0l-1.0008,0l-0.3096,0c-0.3816,0,-0.6984,0.29376,-0.6984,0.64512l0,0.24696L6.7464,5.8392l0,0.1728c0,0.36,0.3168,0.64512,0.6984,0.64512l1.62,0c0.3816,0,0.9792,-0.1224,1.332,-0.26712l0.072,-0.02808c0.3456,-0.14112,0.9504,-0.26496,1.332,-0.26496l6.94656,0c0.37944,0,0.97704,0.12384,1.33416,0.26568l0.07416,0.02808c0.34488,0.14472,0.94464,0.26712,1.33344,0.26712l2.2248,0c0.38088,0,0.69912,-0.2952,0.69912,-0.64512L24.413,5.472L24.413,4.49928L24.413,2.65536C24.1358,2.76336,23.711,3.06576,23.711,4.0896z" opacity="0.3" id="Shadow"/>
 <rect xmlns="http://www.w3.org/2000/svg" width="0.70272" x="22.019" opacity="0.4" y="3.48336" id="ShadowExtra" height="3.15288"/>
 <path xmlns="http://www.w3.org/2000/svg" d="M19.751,1.08576c0.22968,0,0.49104,-0.1008,0.6624,-0.1728c0.2016,-0.0792,0.57672,-0.144,0.96624,-0.144l1.46088,0c0.22464,0,0.22464,0.2448,0.22464,0.3744c0,0.1296,-0.01512,0.3816,-0.22464,0.3816l-3.06,0c-0.10728,0,-0.2304,-0.1152,-0.2304,-0.22392C19.5566,1.21536,19.6286,1.08576,19.751,1.08576z" opacity="0.25" fill="#FFFFFF" id="ReflexRight"/>
 <circle xmlns="http://www.w3.org/2000/svg" opacity="0.35" fill="#FFFFFF" id="ReflexLeft" cx="6.99984" cy="1.13616" r="0.432"/>
 <rect xmlns="http://www.w3.org/2000/svg" width="0.70272" x="22.019" opacity="0.5" fill="#FFFF33" y="0.42336" id="Reflex_gold" height="1.62"/>
 <rect xmlns="http://www.w3.org/2000/svg" width="0.70272" x="22.019" opacity="0.5" fill="#FFFFFF" y="0.78336" id="Reflex_extra" height="0.7488"/>
</g>
</g></g></g><path stroke='#8c8c8c' stroke-width='2.0952' stroke-linecap='round' stroke-linejoin='round' fill='none' d='M117.177,51.3763L117.177,50.3287' />
<path stroke='#8c8c8c' stroke-width='2.0952' stroke-linecap='round' stroke-linejoin='round' fill='none' d='M117.177,78.0862L117.177,79.1338' />
<g partID='59700'><g transform='translate(120.809,49.2811)' ><g transform='matrix(0,1,-1,0,0,0)'  ><g xmlns="http://www.w3.org/2000/svg" id="breadboard">
 <rect xmlns="http://www.w3.org/2000/svg" width="0.72" x="0.36" fill="none" y="2.5848" id="connector0pin" height="0.72"/>
 <rect xmlns="http://www.w3.org/2000/svg" width="0.72" x="29.8202" fill="none" y="2.5848" id="connector1pin" height="0.72"/>
 <line xmlns="http://www.w3.org/2000/svg" stroke-width="2.0952" y1="3.6324" stroke="#8C8C8C" stroke-linecap="round" fill="none" x1="1.0476" id="connector0leg" x2="2.0952" y2="3.6324"/>
 <line xmlns="http://www.w3.org/2000/svg" stroke-width="2.0952" y1="3.6324" stroke="#8C8C8C" stroke-linecap="round" fill="none" x1="29.8526" id="connector1leg" x2="28.805" y2="3.6324"/>
 <path xmlns="http://www.w3.org/2000/svg" stroke-width="2.0952" stroke="#8C8C8C" d="M1.0476,3.6324l28.3666,0" fill="none"/>
 <path xmlns="http://www.w3.org/2000/svg" d="M10.2478,0.49536c-0.36,-0.1656,-0.9792,-0.2952,-1.3752,-0.2952l-1.9872,0c-0.396,0,-0.72,0.324,-0.72,0.72l0,5.35608c0,0.39672,0.324,0.72,0.72,0.72l1.9872,0c0.396,0,1.0152,-0.13608,1.3752,-0.2952l0.072,-0.03528c0.36,-0.1656,0.9792,-0.2952,1.3752,-0.2952l7.1856,0c0.39672,0,1.01448,0.13608,1.37448,0.2952l0.07272,0.03528c0.36,0.1656,0.97776,0.2952,1.3752,0.2952l1.9872,0c0.39744,0,0.72,-0.32328,0.72,-0.72L24.4102,0.92016c0,-0.396,-0.32256,-0.72,-0.72,-0.72l-1.9872,0c-0.39744,0,-1.0152,0.1368,-1.3752,0.2952l-0.07272,0.036c-0.36,0.1656,-0.97776,0.2952,-1.37448,0.2952l-7.1856,0c-0.396,0,-1.0152,-0.1368,-1.3752,-0.2952L10.2478,0.49536z" fill="#D9B477" id="body"/>
 <rect xmlns="http://www.w3.org/2000/svg" width="0.70272" x="22.019" fill="#ad9f4e" y="0.19368" id="gold_band" height="6.79536"/>
 <rect xmlns="http://www.w3.org/2000/svg" width="1.8504" x="16.1726" fill="#c40808" y="0.82656" id="band_rd_multiplier" height="5.5368"/>
 <rect xmlns="http://www.w3.org/2000/svg" width="1.8504" x="12.4726" fill="#000000" y="0.82656" id="band_2_nd" height="5.5368"/>
 <path xmlns="http://www.w3.org/2000/svg" d="M10.6286,0.63936c-0.1152,-0.036,-0.2232,-0.072,-0.3096,-0.1152l-0.072,-0.036c-0.36,-0.16488,-0.9792,-0.2952,-1.3752,-0.2952l-0.0864,0l0,6.79608l0.0864,0c0.396,0,1.0152,-0.13608,1.3752,-0.2952l0.072,-0.03528c0.0864,-0.04464,0.1944,-0.07992,0.3096,-0.1152L10.6286,0.63936z" fill="#8a3d06" id="band_1_st"/>
 <path xmlns="http://www.w3.org/2000/svg" d="M23.711,4.0896L23.711,4.0896c0,0.37944,-0.13032,0.69912,-0.2952,0.69912l-1.9224,0c-0.38016,0,-0.97776,-0.05616,-1.33272,-0.1224L20.088,4.65048c-0.34488,-0.0648,-0.94896,-0.1224,-1.33344,-0.1224L11.808,4.52808c-0.3816,0,-0.9792,0.0576,-1.332,0.1224l-0.072,0.01512c-0.3456,0.06552,-0.9432,0.1224,-1.332,0.1224l-0.3168,0l-1.0008,0l-0.3096,0c-0.3816,0,-0.6984,0.29376,-0.6984,0.64512l0,0.24696L6.7464,5.8392l0,0.1728c0,0.36,0.3168,0.64512,0.6984,0.64512l1.62,0c0.3816,0,0.9792,-0.1224,1.332,-0.26712l0.072,-0.02808c0.3456,-0.14112,0.9504,-0.26496,1.332,-0.26496l6.94656,0c0.37944,0,0.97704,0.12384,1.33416,0.26568l0.07416,0.02808c0.34488,0.14472,0.94464,0.26712,1.33344,0.26712l2.2248,0c0.38088,0,0.69912,-0.2952,0.69912,-0.64512L24.413,5.472L24.413,4.49928L24.413,2.65536C24.1358,2.76336,23.711,3.06576,23.711,4.0896z" opacity="0.3" id="Shadow"/>
 <rect xmlns="http://www.w3.org/2000/svg" width="0.70272" x="22.019" opacity="0.4" y="3.48336" id="ShadowExtra" height="3.15288"/>
 <path xmlns="http://www.w3.org/2000/svg" d="M19.751,1.08576c0.22968,0,0.49104,-0.1008,0.6624,-0.1728c0.2016,-0.0792,0.57672,-0.144,0.96624,-0.144l1.46088,0c0.22464,0,0.22464,0.2448,0.22464,0.3744c0,0.1296,-0.01512,0.3816,-0.22464,0.3816l-3.06,0c-0.10728,0,-0.2304,-0.1152,-0.2304,-0.22392C19.5566,1.21536,19.6286,1.08576,19.751,1.08576z" opacity="0.25" fill="#FFFFFF" id="ReflexRight"/>
 <circle xmlns="http://www.w3.org/2000/svg" opacity="0.35" fill="#FFFFFF" id="ReflexLeft" cx="6.99984" cy="1.13616" r="0.432"/>
 <rect xmlns="http://www.w3.org/2000/svg" width="0.70272" x="22.019" opacity="0.5" fill="#FFFF33" y="0.42336" id="Reflex_gold" height="1.62"/>
 <rect xmlns="http://www.w3.org/2000/svg" width="0.70272" x="22.019" opacity="0.5" fill="#FFFFFF" y="0.78336" id="Reflex_extra" height="0.7488"/>
</g>
</g></g></g><path stroke='#8c8c8c' stroke-width='2.0952' stroke-linecap='round' stroke-linejoin='round' fill='none' d='M88.3771,51.3763L88.3771,50.3287' />
<path stroke='#8c8c8c' stroke-width='2.0952' stroke-linecap='round' stroke-linejoin='round' fill='none' d='M88.3771,78.0862L88.3771,79.1338' />
<g partID='59660'><g transform='translate(92.0095,49.2811)' ><g transform='matrix(0,1,-1,0,0,0)'  ><g xmlns="http://www.w3.org/2000/svg" id="breadboard">
 <rect xmlns="http://www.w3.org/2000/svg" width="0.72" x="0.36" fill="none" y="2.5848" id="connector0pin" height="0.72"/>
 <rect xmlns="http://www.w3.org/2000/svg" width="0.72" x="29.8202" fill="none" y="2.5848" id="connector1pin" height="0.72"/>
 <line xmlns="http://www.w3.org/2000/svg" stroke-width="2.0952" y1="3.6324" stroke="#8C8C8C" stroke-linecap="round" fill="none" x1="1.0476" id="connector0leg" x2="2.0952" y2="3.6324"/>
 <line xmlns="http://www.w3.org/2000/svg" stroke-width="2.0952" y1="3.6324" stroke="#8C8C8C" stroke-linecap="round" fill="none" x1="29.8526" id="connector1leg" x2="28.805" y2="3.6324"/>
 <path xmlns="http://www.w3.org/2000/svg" stroke-width="2.0952" stroke="#8C8C8C" d="M1.0476,3.6324l28.3666,0" fill="none"/>
 <path xmlns="http://www.w3.org/2000/svg" d="M10.2478,0.49536c-0.36,-0.1656,-0.9792,-0.2952,-1.3752,-0.2952l-1.9872,0c-0.396,0,-0.72,0.324,-0.72,0.72l0,5.35608c0,0.39672,0.324,0.72,0.72,0.72l1.9872,0c0.396,0,1.0152,-0.13608,1.3752,-0.2952l0.072,-0.03528c0.36,-0.1656,0.9792,-0.2952,1.3752,-0.2952l7.1856,0c0.39672,0,1.01448,0.13608,1.37448,0.2952l0.07272,0.03528c0.36,0.1656,0.97776,0.2952,1.3752,0.2952l1.9872,0c0.39744,0,0.72,-0.32328,0.72,-0.72L24.4102,0.92016c0,-0.396,-0.32256,-0.72,-0.72,-0.72l-1.9872,0c-0.39744,0,-1.0152,0.1368,-1.3752,0.2952l-0.07272,0.036c-0.36,0.1656,-0.97776,0.2952,-1.37448,0.2952l-7.1856,0c-0.396,0,-1.0152,-0.1368,-1.3752,-0.2952L10.2478,0.49536z" fill="#D9B477" id="body"/>
 <rect xmlns="http://www.w3.org/2000/svg" width="0.70272" x="22.019" fill="#ad9f4e" y="0.19368" id="gold_band" height="6.79536"/>
 <rect xmlns="http://www.w3.org/2000/svg" width="1.8504" x="16.1726" fill="#c40808" y="0.82656" id="band_rd_multiplier" height="5.5368"/>
 <rect xmlns="http://www.w3.org/2000/svg" width="1.8504" x="12.4726" fill="#000000" y="0.82656" id="band_2_nd" height="5.5368"/>
 <path xmlns="http://www.w3.org/2000/svg" d="M10.6286,0.63936c-0.1152,-0.036,-0.2232,-0.072,-0.3096,-0.1152l-0.072,-0.036c-0.36,-0.16488,-0.9792,-0.2952,-1.3752,-0.2952l-0.0864,0l0,6.79608l0.0864,0c0.396,0,1.0152,-0.13608,1.3752,-0.2952l0.072,-0.03528c0.0864,-0.04464,0.1944,-0.07992,0.3096,-0.1152L10.6286,0.63936z" fill="#8a3d06" id="band_1_st"/>
 <path xmlns="http://www.w3.org/2000/svg" d="M23.711,4.0896L23.711,4.0896c0,0.37944,-0.13032,0.69912,-0.2952,0.69912l-1.9224,0c-0.38016,0,-0.97776,-0.05616,-1.33272,-0.1224L20.088,4.65048c-0.34488,-0.0648,-0.94896,-0.1224,-1.33344,-0.1224L11.808,4.52808c-0.3816,0,-0.9792,0.0576,-1.332,0.1224l-0.072,0.01512c-0.3456,0.06552,-0.9432,0.1224,-1.332,0.1224l-0.3168,0l-1.0008,0l-0.3096,0c-0.3816,0,-0.6984,0.29376,-0.6984,0.64512l0,0.24696L6.7464,5.8392l0,0.1728c0,0.36,0.3168,0.64512,0.6984,0.64512l1.62,0c0.3816,0,0.9792,-0.1224,1.332,-0.26712l0.072,-0.02808c0.3456,-0.14112,0.9504,-0.26496,1.332,-0.26496l6.94656,0c0.37944,0,0.97704,0.12384,1.33416,0.26568l0.07416,0.02808c0.34488,0.14472,0.94464,0.26712,1.33344,0.26712l2.2248,0c0.38088,0,0.69912,-0.2952,0.69912,-0.64512L24.413,5.472L24.413,4.49928L24.413,2.65536C24.1358,2.76336,23.711,3.06576,23.711,4.0896z" opacity="0.3" id="Shadow"/>
 <rect xmlns="http://www.w3.org/2000/svg" width="0.70272" x="22.019" opacity="0.4" y="3.48336" id="ShadowExtra" height="3.15288"/>
 <path xmlns="http://www.w3.org/2000/svg" d="M19.751,1.08576c0.22968,0,0.49104,-0.1008,0.6624,-0.1728c0.2016,-0.0792,0.57672,-0.144,0.96624,-0.144l1.46088,0c0.22464,0,0.22464,0.2448,0.22464,0.3744c0,0.1296,-0.01512,0.3816,-0.22464,0.3816l-3.06,0c-0.10728,0,-0.2304,-0.1152,-0.2304,-0.22392C19.5566,1.21536,19.6286,1.08576,19.751,1.08576z" opacity="0.25" fill="#FFFFFF" id="ReflexRight"/>
 <circle xmlns="http://www.w3.org/2000/svg" opacity="0.35" fill="#FFFFFF" id="ReflexLeft" cx="6.99984" cy="1.13616" r="0.432"/>
 <rect xmlns="http://www.w3.org/2000/svg" width="0.70272" x="22.019" opacity="0.5" fill="#FFFF33" y="0.42336" id="Reflex_gold" height="1.62"/>
 <rect xmlns="http://www.w3.org/2000/svg" width="0.70272" x="22.019" opacity="0.5" fill="#FFFFFF" y="0.78336" id="Reflex_extra" height="0.7488"/>
</g>
</g></g></g><path stroke='#8c8c8c' stroke-width='2.0952' stroke-linecap='round' stroke-linejoin='round' fill='none' d='M73.9771,51.3763L73.9771,50.3287' />
<path stroke='#8c8c8c' stroke-width='2.0952' stroke-linecap='round' stroke-linejoin='round' fill='none' d='M73.9771,78.0862L73.9771,79.1338' />
<g partID='59590'><g transform='translate(77.6095,49.2811)' ><g transform='matrix(0,1,-1,0,0,0)'  ><g xmlns="http://www.w3.org/2000/svg" id="breadboard">
 <rect xmlns="http://www.w3.org/2000/svg" width="0.72" x="0.36" fill="none" y="2.5848" id="connector0pin" height="0.72"/>
 <rect xmlns="http://www.w3.org/2000/svg" width="0.72" x="29.8202" fill="none" y="2.5848" id="connector1pin" height="0.72"/>
 <line xmlns="http://www.w3.org/2000/svg" stroke-width="2.0952" y1="3.6324" stroke="#8C8C8C" stroke-linecap="round" fill="none" x1="1.0476" id="connector0leg" x2="2.0952" y2="3.6324"/>
 <line xmlns="http://www.w3.org/2000/svg" stroke-width="2.0952" y1="3.6324" stroke="#8C8C8C" stroke-linecap="round" fill="none" x1="29.8526" id="connector1leg" x2="28.805" y2="3.6324"/>
 <path xmlns="http://www.w3.org/2000/svg" stroke-width="2.0952" stroke="#8C8C8C" d="M1.0476,3.6324l28.3666,0" fill="none"/>
 <path xmlns="http://www.w3.org/2000/svg" d="M10.2478,0.49536c-0.36,-0.1656,-0.9792,-0.2952,-1.3752,-0.2952l-1.9872,0c-0.396,0,-0.72,0.324,-0.72,0.72l0,5.35608c0,0.39672,0.324,0.72,0.72,0.72l1.9872,0c0.396,0,1.0152,-0.13608,1.3752,-0.2952l0.072,-0.03528c0.36,-0.1656,0.9792,-0.2952,1.3752,-0.2952l7.1856,0c0.39672,0,1.01448,0.13608,1.37448,0.2952l0.07272,0.03528c0.36,0.1656,0.97776,0.2952,1.3752,0.2952l1.9872,0c0.39744,0,0.72,-0.32328,0.72,-0.72L24.4102,0.92016c0,-0.396,-0.32256,-0.72,-0.72,-0.72l-1.9872,0c-0.39744,0,-1.0152,0.1368,-1.3752,0.2952l-0.07272,0.036c-0.36,0.1656,-0.97776,0.2952,-1.37448,0.2952l-7.1856,0c-0.396,0,-1.0152,-0.1368,-1.3752,-0.2952L10.2478,0.49536z" fill="#D9B477" id="body"/>
 <rect xmlns="http://www.w3.org/2000/svg" width="0.70272" x="22.019" fill="#ad9f4e" y="0.19368" id="gold_band" height="6.79536"/>
 <rect xmlns="http://www.w3.org/2000/svg" width="1.8504" x="16.1726" fill="#c40808" y="0.82656" id="band_rd_multiplier" height="5.5368"/>
 <rect xmlns="http://www.w3.org/2000/svg" width="1.8504" x="12.4726" fill="#000000" y="0.82656" id="band_2_nd" height="5.5368"/>
 <path xmlns="http://www.w3.org/2000/svg" d="M10.6286,0.63936c-0.1152,-0.036,-0.2232,-0.072,-0.3096,-0.1152l-0.072,-0.036c-0.36,-0.16488,-0.9792,-0.2952,-1.3752,-0.2952l-0.0864,0l0,6.79608l0.0864,0c0.396,0,1.0152,-0.13608,1.3752,-0.2952l0.072,-0.03528c0.0864,-0.04464,0.1944,-0.07992,0.3096,-0.1152L10.6286,0.63936z" fill="#8a3d06" id="band_1_st"/>
 <path xmlns="http://www.w3.org/2000/svg" d="M23.711,4.0896L23.711,4.0896c0,0.37944,-0.13032,0.69912,-0.2952,0.69912l-1.9224,0c-0.38016,0,-0.97776,-0.05616,-1.33272,-0.1224L20.088,4.65048c-0.34488,-0.0648,-0.94896,-0.1224,-1.33344,-0.1224L11.808,4.52808c-0.3816,0,-0.9792,0.0576,-1.332,0.1224l-0.072,0.01512c-0.3456,0.06552,-0.9432,0.1224,-1.332,0.1224l-0.3168,0l-1.0008,0l-0.3096,0c-0.3816,0,-0.6984,0.29376,-0.6984,0.64512l0,0.24696L6.7464,5.8392l0,0.1728c0,0.36,0.3168,0.64512,0.6984,0.64512l1.62,0c0.3816,0,0.9792,-0.1224,1.332,-0.26712l0.072,-0.02808c0.3456,-0.14112,0.9504,-0.26496,1.332,-0.26496l6.94656,0c0.37944,0,0.97704,0.12384,1.33416,0.26568l0.07416,0.02808c0.34488,0.14472,0.94464,0.26712,1.33344,0.26712l2.2248,0c0.38088,0,0.69912,-0.2952,0.69912,-0.64512L24.413,5.472L24.413,4.49928L24.413,2.65536C24.1358,2.76336,23.711,3.06576,23.711,4.0896z" opacity="0.3" id="Shadow"/>
 <rect xmlns="http://www.w3.org/2000/svg" width="0.70272" x="22.019" opacity="0.4" y="3.48336" id="ShadowExtra" height="3.15288"/>
 <path xmlns="http://www.w3.org/2000/svg" d="M19.751,1.08576c0.22968,0,0.49104,-0.1008,0.6624,-0.1728c0.2016,-0.0792,0.57672,-0.144,0.96624,-0.144l1.46088,0c0.22464,0,0.22464,0.2448,0.22464,0.3744c0,0.1296,-0.01512,0.3816,-0.22464,0.3816l-3.06,0c-0.10728,0,-0.2304,-0.1152,-0.2304,-0.22392C19.5566,1.21536,19.6286,1.08576,19.751,1.08576z" opacity="0.25" fill="#FFFFFF" id="ReflexRight"/>
 <circle xmlns="http://www.w3.org/2000/svg" opacity="0.35" fill="#FFFFFF" id="ReflexLeft" cx="6.99984" cy="1.13616" r="0.432"/>
 <rect xmlns="http://www.w3.org/2000/svg" width="0.70272" x="22.019" opacity="0.5" fill="#FFFF33" y="0.42336" id="Reflex_gold" height="1.62"/>
 <rect xmlns="http://www.w3.org/2000/svg" width="0.70272" x="22.019" opacity="0.5" fill="#FFFFFF" y="0.78336" id="Reflex_extra" height="0.7488"/>
</g>
</g></g></g><g partID='64760'><g transform='translate(63.3018,95.1884)' ><g xmlns="http://www.w3.org/2000/svg" id="breadboard">
 <text xmlns="http://www.w3.org/2000/svg" stroke-width="0" x="36.3233" font-family="Droid Sans" text-anchor="middle" fill="#000000" y="5.9438" id="label" font-size="6.60423" xml:space="preserve" xmlns:xml="http://www.w3.org/XML/1998/namespace">&#x25c4; Measuring</text>
</g>
</g></g><g partID='64730'><g transform='translate(71.1894,109.892)' ><g xmlns="http://www.w3.org/2000/svg" id="breadboard">
 <text xmlns="http://www.w3.org/2000/svg" stroke-width="0" x="33.0211" font-family="Droid Sans" text-anchor="middle" fill="#000000" y="5.9438" id="label" font-size="6.60423" xml:space="preserve" xmlns:xml="http://www.w3.org/XML/1998/namespace">Charging &#x25ba;</text>
</g>
</g></g><g partID='64850'><g transform='translate(57.831,81.0922)' ><g xmlns="http://www.w3.org/2000/svg" id="breadboard">
 <text xmlns="http://www.w3.org/2000/svg" stroke-width="0" x="42.9275" font-family="Droid Sans" text-anchor="middle" fill="#000000" y="5.9438" id="label" font-size="6.60423" xml:space="preserve" xmlns:xml="http://www.w3.org/XML/1998/namespace">&#x25c4; Discharging</text>
</g>
</g></g><g partID='64870'><g transform='translate(0,1.40075)' ><g xmlns="http://www.w3.org/2000/svg" id="breadboard">
 <text xmlns="http://www.w3.org/2000/svg" stroke-width="0" x="39.6" font-family="Droid Sans" text-anchor="middle" fill="#787878" y="6.48" id="label" font-size="7.2" xml:space="preserve" xmlns:xml="http://www.w3.org/XML/1998/namespace">To Computer</text>
</g>
</g></g><g partID='64900'><g transform='translate(12.8418,10.5656)' ><g xmlns="http://www.w3.org/2000/svg" id="breadboard">
 <text xmlns="http://www.w3.org/2000/svg" stroke-width="0" x="25.621" font-family="Droid Sans" text-anchor="middle" fill="#787878" y="6.58827" id="label" font-size="7.32028" xml:space="preserve" xmlns:xml="http://www.w3.org/XML/1998/namespace">&#x25b2; &#x25b2; &#x25b2; &#x25b2;</text>
</g>
</g></g><g partID='59780'><line stroke-linecap='round' stroke='#8c0000' x1='145.94' y1='79.1051' x2='146.047' y2='108.001' stroke-width='3.2' /><line stroke-linecap='round' stroke='#cc1414' x1='145.94' y1='79.1051' x2='146.047' y2='108.001' stroke-width='1.6' /></g><g partID='58750'><line stroke-linecap='round' stroke='#8c0000' x1='146.047' y1='108.001' x2='59.5771' y2='107.929' stroke-width='3.2' /><line stroke-linecap='round' stroke='#cc1414' x1='146.047' y1='108.001' x2='59.5771' y2='107.929' stroke-width='1.6' /></g><g partID='58500'><line stroke-linecap='round' stroke='#8c0000' x1='145.977' y1='50.3287' x2='145.94' y2='79.1051' stroke-width='3.2' /><line stroke-linecap='round' stroke='#cc1414' x1='145.977' y1='50.3287' x2='145.94' y2='79.1051' stroke-width='1.6' /></g><g partID='58570'><line stroke-linecap='round' stroke='#8c0000' x1='145.742' y1='79.1204' x2='73.8526' y2='78.938' stroke-width='3.2' /><line stroke-linecap='round' stroke='#cc1414' x1='145.742' y1='79.1204' x2='73.8526' y2='78.938' stroke-width='1.6' /></g><g partID='58640'><line stroke-linecap='round' stroke='#000000' x1='138.777' y1='50.3287' x2='59.5771' y2='50.3287' stroke-width='3.2' /><line stroke-linecap='round' stroke='#404040' x1='138.777' y1='50.3287' x2='59.5771' y2='50.3287' stroke-width='1.6' /></g><g partID='62570'><line stroke-linecap='round' stroke='#d6d63a' x1='48.9492' y1='21.4495' x2='48.7771' y2='35.9287' stroke-width='3.2' /><line stroke-linecap='round' stroke='#fff800' x1='48.9492' y1='21.4495' x2='48.7771' y2='35.9287' stroke-width='1.6' /></g><g partID='62600'><line stroke-linecap='round' stroke='#d6d63a' x1='41.8183' y1='21.512' x2='41.5771' y2='35.9287' stroke-width='3.2' /><line stroke-linecap='round' stroke='#fff800' x1='41.8183' y1='21.512' x2='41.5771' y2='35.9287' stroke-width='1.6' /></g><g partID='62660'><line stroke-linecap='round' stroke='#8c0000' x1='34.4373' y1='21.3244' x2='34.3771' y2='35.9287' stroke-width='3.2' /><line stroke-linecap='round' stroke='#cc1414' x1='34.4373' y1='21.3244' x2='34.3771' y2='35.9287' stroke-width='1.6' /></g><g partID='62690'><line stroke-linecap='round' stroke='#000000' x1='27.1188' y1='21.5746' x2='27.1771' y2='35.9287' stroke-width='3.2' /><line stroke-linecap='round' stroke='#404040' x1='27.1188' y1='21.5746' x2='27.1771' y2='35.9287' stroke-width='1.6' /></g><g partID='64820'><line stroke-linecap='round' stroke='#8c0000' x1='145.668' y1='93.5048' x2='59.5771' y2='93.5287' stroke-width='3.2' /><line stroke-linecap='round' stroke='#cc1414' x1='145.668' y1='93.5048' x2='59.5771' y2='93.5287' stroke-width='1.6' /></g></svg>